<svg width="35" height="27" viewBox="0 0 35 27" fill="none" xmlns="http://www.w3.org/2000/svg">
<path d="M15.7622 26.2858C15.7176 26.4897 15.6144 26.6707 15.4689 26.8002C15.3235 26.9296 15.1442 26.9999 14.9596 27C14.8917 26.9998 14.8241 26.9903 14.7583 26.9717L10.3452 25.7159C10.2535 25.6892 10.1663 25.6452 10.0873 25.5857L6.77752 23.074C6.68697 23.0054 6.60919 22.9171 6.54861 22.8143C6.48803 22.7114 6.44584 22.596 6.42445 22.4745C6.38126 22.2293 6.42542 21.9746 6.54722 21.7664C6.66901 21.5583 6.85847 21.4137 7.07391 21.3645C7.18058 21.3402 7.29042 21.34 7.39716 21.364C7.5039 21.388 7.60544 21.4356 7.69599 21.5043L10.8858 23.9249L15.1609 25.1414C15.2665 25.1715 15.3658 25.225 15.4532 25.2988C15.5405 25.3726 15.6143 25.4653 15.6701 25.5716C15.726 25.6779 15.7629 25.7957 15.7787 25.9183C15.7945 26.0408 15.7889 26.1657 15.7622 26.2858ZM34.0667 11.1219C33.9876 11.3957 33.8615 11.6489 33.6958 11.8669C33.5301 12.0849 33.3281 12.2633 33.1014 12.3919L29.7916 14.2756L22.1639 22.9579C22.0087 23.134 21.7984 23.2328 21.5792 23.2326C21.5113 23.2325 21.4437 23.223 21.3778 23.2043L12.5517 20.6927C12.4526 20.6634 12.359 20.6134 12.2759 20.5452L4.60272 14.3101L1.23363 12.3919C0.775759 12.1312 0.427598 11.6742 0.265705 11.1213C0.103812 10.5685 0.141443 9.96511 0.370322 9.44386L3.79733 1.64374C4.02636 1.12257 4.42785 0.726273 4.91353 0.541996C5.39921 0.357719 5.92931 0.400552 6.38725 0.661076L9.52603 2.44746L16.9386 0.0363139C17.0873 -0.0121046 17.245 -0.0121046 17.3937 0.0363139L24.8062 2.44746L27.945 0.661076C28.403 0.400552 28.933 0.357719 29.4187 0.541996C29.9044 0.726273 30.3059 1.12257 30.5349 1.64374L33.9619 9.44386C34.0759 9.70184 34.1438 9.98294 34.1618 10.271C34.1798 10.559 34.1475 10.8482 34.0667 11.1219ZM1.97419 10.7075L4.66064 12.2443L8.34002 3.87437L5.64668 2.34542C5.5812 2.30841 5.5055 2.3025 5.43619 2.32899C5.36689 2.35548 5.30966 2.41221 5.27709 2.4867L1.85007 10.2868C1.81801 10.3612 1.81305 10.4469 1.83628 10.5254C1.84706 10.5649 1.86487 10.6015 1.8886 10.6328C1.91232 10.6641 1.94146 10.6896 1.97419 10.7075ZM25.8543 16.0886L21.6164 12.2255C18.9962 14.7967 15.6064 15.1766 12.8179 13.1485C12.5739 12.9719 12.3679 12.7352 12.2151 12.4558C12.0622 12.1765 11.9665 11.8616 11.9348 11.5345C11.9032 11.2074 11.9365 10.8764 12.0323 10.5659C12.1281 10.2554 12.2839 9.97332 12.4883 9.74054L18.7934 2.77711C18.8852 2.67643 18.9961 2.60122 19.1175 2.55734L17.1661 1.92159L10.0211 4.23855L6.08661 13.2019L13.1061 18.9079L21.3254 21.2468L25.8543 16.0886ZM28.2925 13.3133L24.3773 4.39552H19.7078L13.6522 11.0827C13.6254 11.1147 13.6051 11.1532 13.593 11.1953C13.5808 11.2374 13.577 11.282 13.5819 11.326C13.5862 11.3739 13.6001 11.4201 13.6226 11.4609C13.6451 11.5018 13.6755 11.5362 13.7115 11.5615C15.5443 12.8942 18.4197 13.2678 20.9917 10.3182C21.1356 10.1538 21.3278 10.0556 21.5315 10.0425C21.7351 10.0295 21.9357 10.1025 22.095 10.2476L27.0348 14.7559L28.2925 13.3133ZM32.4794 10.2868L29.0552 2.4867C29.0226 2.41221 28.9654 2.35548 28.8961 2.32899C28.8268 2.3025 28.7511 2.30841 28.6856 2.34542L25.9991 3.87437L29.6716 12.2443L32.3581 10.7154C32.3908 10.6974 32.4199 10.672 32.4437 10.6406C32.4674 10.6093 32.4852 10.5728 32.496 10.5333C32.5084 10.4933 32.5136 10.4508 32.5113 10.4084C32.5089 10.3661 32.499 10.3247 32.4822 10.2868H32.4794Z" fill="black"/>
</svg>
