<svg width="18" height="16" viewBox="0 0 18 16" fill="none" xmlns="http://www.w3.org/2000/svg">
<path d="M10.7098 1.05991C10.2014 0.727543 9.60722 0.550537 8.99983 0.550537C8.39244 0.550537 7.79821 0.727543 7.28983 1.05991L0.532327 5.47741C0.4362 5.54017 0.359217 5.6282 0.309825 5.73183C0.260432 5.83547 0.240539 5.95071 0.252327 6.06491C0.250546 6.08486 0.249712 6.10488 0.249827 6.12491V11.1249C0.249827 11.2907 0.315675 11.4496 0.432886 11.5668C0.550096 11.6841 0.709067 11.7499 0.874827 11.7499C1.04059 11.7499 1.19956 11.6841 1.31677 11.5668C1.43398 11.4496 1.49983 11.2907 1.49983 11.1249V7.17991L2.74983 8.02616V12.6262C2.74982 12.7751 2.80301 12.9192 2.89983 13.0324L2.90233 13.0362L2.90983 13.0449L2.93483 13.0724L3.01983 13.1649C3.09358 13.2424 3.19983 13.3499 3.33733 13.4774C3.61233 13.7312 4.01608 14.0662 4.53608 14.4024C5.57358 15.0712 7.09733 15.7524 8.99983 15.7524C10.9023 15.7524 12.4248 15.0712 13.4636 14.4024C13.9836 14.0662 14.3873 13.7312 14.6623 13.4774C14.8021 13.3481 14.9364 13.213 15.0648 13.0724L15.0898 13.0449L15.0973 13.0362L15.0998 13.0337L15.1011 13.0312C15.1969 12.9184 15.2496 12.7754 15.2498 12.6274V8.02491L17.4748 6.51866C17.5646 6.46561 17.6378 6.38865 17.6864 6.29639C17.735 6.20412 17.7569 6.10018 17.7498 5.99616C17.749 5.89299 17.7227 5.79162 17.6732 5.7011C17.6237 5.61059 17.5525 5.53373 17.4661 5.47741L10.7098 1.05991ZM13.9998 8.86991V12.3787C13.6295 12.7434 13.2228 13.0693 12.7861 13.3512C11.8861 13.9299 10.5973 14.5012 8.99983 14.5012C7.40233 14.5012 6.11233 13.9299 5.21358 13.3512C4.77679 13.0689 4.37009 12.7426 3.99983 12.3774V8.87115L7.24858 11.0699C7.76561 11.4197 8.37556 11.6067 8.99983 11.6067C9.62409 11.6067 10.234 11.4197 10.7511 11.0699L13.9998 8.86991ZM3.37483 12.6262L2.89983 13.0312L3.37483 12.6249V12.6262ZM7.97358 2.10616C8.27866 1.90663 8.63529 1.80037 8.99983 1.80037C9.36436 1.80037 9.72099 1.90663 10.0261 2.10616L15.9961 5.99991L10.0511 10.0349C9.74076 10.245 9.37459 10.3573 8.99983 10.3573C8.62506 10.3573 8.2589 10.245 7.94858 10.0349L2.00233 6.00991L7.97358 2.10616Z" fill="#1570EF"/>
</svg>
