<svg width="23" height="23" viewBox="0 0 23 23" fill="none" xmlns="http://www.w3.org/2000/svg">
<path d="M21.5001 16.42V19.42C21.5012 19.6985 21.4441 19.9741 21.3326 20.2293C21.221 20.4845 21.0574 20.7136 20.8521 20.9018C20.6469 21.0901 20.4046 21.2335 20.1408 21.3227C19.877 21.4119 19.5974 21.445 19.3201 21.42C16.2429 21.0856 13.2871 20.0341 10.6901 18.35C8.27388 16.8146 6.22539 14.7661 4.69006 12.35C3.00003 9.74118 1.9483 6.77097 1.62006 3.67997C1.59507 3.40344 1.62793 3.12474 1.71656 2.8616C1.80518 2.59846 1.94763 2.35666 2.13482 2.1516C2.32202 1.94653 2.54986 1.78268 2.80385 1.6705C3.05783 1.55831 3.3324 1.50024 3.61006 1.49997H6.61006C7.09536 1.4952 7.56585 1.66705 7.93382 1.98351C8.30179 2.29996 8.54213 2.73942 8.61005 3.21997C8.73668 4.18004 8.97151 5.1227 9.31006 6.02997C9.4446 6.3879 9.47372 6.77689 9.39396 7.15086C9.31421 7.52482 9.12892 7.86809 8.86005 8.13998L7.59006 9.40997C9.01361 11.9135 11.0865 13.9864 13.5901 15.41L14.8601 14.14C15.1319 13.8711 15.4752 13.6858 15.8492 13.6061C16.2231 13.5263 16.6121 13.5554 16.9701 13.69C17.8773 14.0285 18.82 14.2634 19.7801 14.39C20.2658 14.4585 20.7095 14.7032 21.0266 15.0775C21.3437 15.4518 21.5122 15.9296 21.5001 16.42Z" stroke="#475467" stroke-width="2" stroke-linecap="round" stroke-linejoin="round"/>
</svg>
