<svg width="100" height="93" viewBox="0 0 100 93" fill="none" xmlns="http://www.w3.org/2000/svg">
<path d="M20.9748 47.5643C29.2514 47.5643 35.4587 49.5775 39.597 53.6039C43.8471 57.5185 45.9721 62.9429 45.9721 69.8773C45.9721 76.3643 43.7912 81.7328 39.4292 85.9829C35.1791 90.233 29.8106 92.3581 23.3236 92.3581C17.0603 92.3581 11.5799 89.7857 6.88241 84.6408C2.29677 79.4959 0.00395577 71.8905 0.00395577 61.8245C0.00395577 50.9755 1.51386 41.4128 4.53367 33.1363C7.66532 24.8598 12.195 18.0373 18.1228 12.6687C24.1624 7.18833 31.4882 3.38561 40.1003 1.26057C40.8832 1.03687 41.4983 1.03687 41.9457 1.26057C42.3931 1.3724 42.6168 1.65202 42.6168 2.0994C42.6168 2.54677 42.505 2.93823 42.2813 3.27377C42.0576 3.6093 41.6102 3.88891 40.9391 4.1126C33.11 6.23766 26.7908 9.593 21.9814 14.1786C17.284 18.6524 13.8727 23.5177 11.7477 28.7744C9.6226 34.0311 8.56008 38.7845 8.56008 43.0346C8.56008 44.3767 8.95153 45.4951 9.73445 46.3899C10.5174 47.1728 11.8036 47.5643 13.5931 47.5643H20.9748ZM73.9892 47.3965C82.3776 47.3965 88.6409 49.4097 92.7792 53.4361C97.0293 57.3507 99.1543 62.7752 99.1543 69.7095C99.1543 76.1965 96.9733 81.5651 92.6114 85.8152C88.3613 90.0653 82.9368 92.1903 76.338 92.1903C70.0747 92.1903 64.5943 89.6179 59.8968 84.473C55.3112 79.3282 53.0184 71.6668 53.0184 61.4889C53.0184 50.7519 54.5842 41.2451 57.7158 32.9685C60.8475 24.692 65.3772 17.8695 71.305 12.5009C77.3446 7.02057 84.6704 3.21785 93.2825 1.09279C93.9535 0.869106 94.5127 0.869106 94.9601 1.09279C95.4075 1.20464 95.6312 1.48425 95.6312 1.93163C95.743 2.37901 95.6312 2.77047 95.2957 3.10599C95.072 3.44153 94.6805 3.66522 94.1213 3.77707C86.1803 6.01396 79.8611 9.3693 75.1636 13.8431C70.4661 18.3169 67.0549 23.1821 64.9298 28.4388C62.8048 33.6955 61.7422 38.5049 61.7422 42.8668C61.7422 44.2089 62.0778 45.3274 62.7488 46.2221C63.5318 47.0051 64.818 47.3965 66.6075 47.3965H73.9892Z" fill="#F2F4F7"/>
</svg>
