<svg width="24" height="19" viewBox="0 0 24 19" fill="none" xmlns="http://www.w3.org/2000/svg">
<path d="M16.6248 17.6112V15.8087C16.6248 14.8526 16.221 13.9357 15.5021 13.2596C14.7832 12.5836 13.8082 12.2037 12.7915 12.2037H5.12484C4.10817 12.2037 3.13315 12.5836 2.41426 13.2596C1.69537 13.9357 1.2915 14.8526 1.2915 15.8087V17.6112M22.3748 17.6112V15.8087C22.3742 15.01 22.0915 14.2341 21.5711 13.6028C21.0508 12.9715 20.3222 12.5206 19.4998 12.3209M15.6665 1.50591C16.4911 1.70446 17.2219 2.15544 17.7438 2.78777C18.2657 3.42009 18.549 4.19779 18.549 4.99825C18.549 5.79872 18.2657 6.57641 17.7438 7.20874C17.2219 7.84107 16.4911 8.29205 15.6665 8.4906M12.7915 4.99375C12.7915 6.98473 11.0753 8.59875 8.95817 8.59875C6.84108 8.59875 5.12484 6.98473 5.12484 4.99375C5.12484 3.00276 6.84108 1.38875 8.95817 1.38875C11.0753 1.38875 12.7915 3.00276 12.7915 4.99375Z" stroke="#141414" stroke-width="2" stroke-linecap="round" stroke-linejoin="round"/>
</svg>
