<svg width="23" height="23" viewBox="0 0 23 23" fill="none" xmlns="http://www.w3.org/2000/svg">
<path d="M21.5 11.5C21.5 17.0228 17.0228 21.5 11.5 21.5M21.5 11.5C21.5 5.97715 17.0228 1.5 11.5 1.5M21.5 11.5H1.5M11.5 21.5C5.97715 21.5 1.5 17.0228 1.5 11.5M11.5 21.5C14.0013 18.7616 15.4228 15.208 15.5 11.5C15.4228 7.79203 14.0013 4.23835 11.5 1.5M11.5 21.5C8.99872 18.7616 7.57725 15.208 7.5 11.5C7.57725 7.79203 8.99872 4.23835 11.5 1.5M1.5 11.5C1.5 5.97715 5.97715 1.5 11.5 1.5" stroke="#475467" stroke-width="2" stroke-linecap="round" stroke-linejoin="round"/>
</svg>
