<svg width="23" height="25" viewBox="0 0 23 25" fill="none" xmlns="http://www.w3.org/2000/svg">
<path d="M18.2084 7.5C18.2084 7.5 13.4167 14.5 6.22921 14.5M6.22921 14.5C4.31254 14.5 0.958374 15.5 0.958374 19.5V23.5H11.5V19.5C11.5 17 14.375 18.5 18.2084 11.5L16.7709 10M6.22921 14.5C7.11879 14.5 7.97193 14.1313 8.60096 13.4749C9.22999 12.8185 9.58337 11.9283 9.58337 11C9.58337 10.0717 9.22999 9.1815 8.60096 8.52513C7.97193 7.86875 7.11879 7.5 6.22921 7.5C5.33963 7.5 4.48648 7.86875 3.85745 8.52513C3.22843 9.1815 2.87504 10.0717 2.87504 11C2.87504 11.9283 3.22843 12.8185 3.85745 13.4749C4.48648 14.1313 5.33963 14.5 6.22921 14.5ZM2.87504 5.5V2.5H22.0417V16.5H19.1667M10.5417 1.5H14.375V3.5H10.5417V1.5Z" stroke="black" stroke-width="2"/>
</svg>
