<svg width="26" height="23" viewBox="0 0 26 23" fill="none" xmlns="http://www.w3.org/2000/svg">
<path d="M12.8332 5.66667C12.8332 4.42899 12.3415 3.242 11.4663 2.36683C10.5912 1.49167 9.40418 1 8.1665 1H1.1665V18.5H9.33317C10.2614 18.5 11.1517 18.8687 11.808 19.5251C12.4644 20.1815 12.8332 21.0717 12.8332 22M12.8332 5.66667V22M12.8332 5.66667C12.8332 4.42899 13.3248 3.242 14.2 2.36683C15.0752 1.49167 16.2622 1 17.4998 1H24.4998V18.5H16.3332C15.4049 18.5 14.5147 18.8687 13.8583 19.5251C13.2019 20.1815 12.8332 21.0717 12.8332 22" stroke="#141414" stroke-width="2" stroke-linecap="round" stroke-linejoin="round"/>
</svg>
