<?xml version="1.0" standalone="no"?>
<!DOCTYPE svg PUBLIC "-//W3C//DTD SVG 20010904//EN"
 "http://www.w3.org/TR/2001/REC-SVG-20010904/DTD/svg10.dtd">
<svg version="1.0" xmlns="http://www.w3.org/2000/svg"
 width="1080.000000pt" height="1080.000000pt" viewBox="0 0 1080.000000 1080.000000"
 preserveAspectRatio="xMidYMid meet">
<metadata>
Created by potrace 1.14, written by Peter Selinger 2001-2017
</metadata>
<g transform="translate(0.000000,1080.000000) scale(0.100000,-0.100000)"
fill="#000000" stroke="none">
<path d="M5540 10332 c-8 -3 -24 -12 -34 -21 -11 -9 -16 -10 -12 -3 4 6 3 12
-3 12 -5 0 -11 -5 -13 -11 -2 -5 -12 -12 -23 -14 -11 -2 -22 -4 -25 -5 -3 -1
-9 -2 -14 -1 -5 1 -6 -5 -2 -14 3 -9 2 -13 -4 -10 -6 3 -10 2 -10 -4 0 -6 -8
-8 -17 -4 -10 3 -15 2 -10 -2 4 -5 -11 -19 -33 -32 -23 -14 -37 -29 -34 -35 4
-7 2 -8 -4 -4 -7 4 -20 -6 -32 -26 -11 -18 -20 -28 -20 -23 -1 6 -7 -1 -14
-15 -8 -14 -12 -29 -8 -34 3 -5 -2 -7 -10 -4 -11 5 -14 0 -12 -18 1 -17 -3
-24 -14 -24 -15 0 -15 -2 -2 -10 11 -7 11 -10 2 -10 -7 0 -11 -4 -8 -8 2 -4 1
-14 -4 -22 -5 -9 -4 -20 3 -29 10 -12 9 -14 -3 -9 -13 5 -15 -8 -12 -86 3
-113 3 -116 14 -116 5 0 6 -9 3 -20 -3 -11 -2 -20 3 -20 6 0 8 -9 5 -20 -3
-12 0 -20 7 -20 8 0 11 -9 8 -25 -3 -14 -1 -23 6 -22 6 1 10 -4 8 -11 -1 -7 7
-25 18 -39 11 -14 20 -34 20 -44 0 -11 4 -19 9 -19 5 0 11 -10 13 -22 2 -13 9
-22 16 -21 7 2 11 -6 9 -20 -1 -13 3 -21 10 -20 7 2 12 -1 10 -6 -2 -10 19
-45 45 -72 9 -9 14 -20 11 -23 -4 -3 2 -15 12 -26 10 -11 14 -20 9 -20 -5 0
-3 -4 5 -9 13 -9 23 -44 22 -83 0 -10 5 -18 11 -18 6 0 6 -6 -2 -15 -9 -11
-10 -18 -1 -29 9 -10 8 -16 -4 -26 -12 -10 -13 -16 -4 -26 9 -11 7 -14 -7 -14
-15 0 -16 -2 -5 -9 9 -6 10 -11 3 -15 -6 -4 -8 -14 -5 -23 5 -12 3 -14 -7 -8
-10 6 -12 3 -8 -13 4 -16 2 -22 -10 -22 -8 0 -12 -3 -9 -6 4 -4 -2 -19 -13
-34 -11 -16 -20 -33 -20 -40 0 -6 -4 -8 -10 -5 -5 3 -10 1 -10 -5 0 -7 -13
-24 -30 -40 -16 -15 -28 -29 -26 -31 1 -2 -6 -12 -16 -21 -10 -10 -18 -16 -18
-13 0 3 -11 -4 -24 -17 -29 -28 -62 -51 -70 -49 -4 1 -16 -8 -28 -19 -12 -11
-32 -20 -45 -20 -13 0 -23 -5 -23 -11 0 -8 -6 -7 -17 2 -9 8 -14 9 -10 3 9
-16 -28 -25 -42 -11 -6 6 -11 7 -11 1 0 -5 -73 -8 -182 -8 -128 1 -185 -2
-190 -10 -6 -8 -8 -8 -8 0 0 7 -27 12 -75 12 -56 0 -73 -2 -68 -11 5 -9 3 -9
-8 -1 -18 15 -70 15 -88 0 -11 -8 -13 -8 -8 0 5 8 -21 12 -93 12 -72 0 -98 -3
-93 -12 3 -6 -2 -3 -13 6 -18 15 -23 16 -47 3 -15 -7 -29 -10 -32 -6 -7 12
-98 10 -114 -3 -12 -9 -13 -8 -7 2 6 10 0 9 -23 -2 -17 -9 -33 -16 -36 -16
-22 1 -25 -1 -19 -12 5 -8 2 -9 -12 -4 -10 4 -15 4 -11 0 4 -4 -7 -20 -23 -36
-16 -15 -24 -28 -18 -28 7 0 3 -6 -7 -14 -11 -8 -16 -20 -12 -29 3 -9 1 -19
-5 -23 -7 -5 -8 -2 -3 6 5 9 4 11 -4 6 -9 -6 -9 -11 0 -22 9 -11 9 -14 0 -14
-9 0 -9 -5 -1 -20 8 -14 8 -20 0 -20 -7 0 -8 -5 -3 -12 4 -7 6 -21 5 -30 -2
-10 2 -18 7 -18 6 0 11 -14 11 -31 0 -28 2 -30 17 -18 11 10 14 10 9 2 -9 -15
17 -56 29 -45 4 4 5 -1 2 -10 -3 -10 -3 -17 1 -16 4 1 17 -3 28 -10 12 -6 24
-8 28 -5 3 3 6 1 6 -6 0 -7 4 -10 9 -6 5 3 13 1 16 -5 4 -7 11 -7 18 -2 7 5
21 4 34 -3 18 -9 20 -14 10 -25 -7 -7 -7 -10 -1 -7 6 3 11 -1 11 -9 0 -9 -6
-13 -15 -9 -12 4 -12 3 -3 -9 8 -10 9 -16 1 -21 -6 -3 -8 -10 -5 -15 3 -5 1
-19 -6 -31 -9 -17 -8 -20 3 -13 10 6 11 5 2 -7 -6 -8 -14 -27 -17 -44 -12 -65
-20 -90 -31 -97 -7 -5 -7 -8 2 -8 7 0 10 -5 7 -10 -4 -6 -10 -8 -14 -6 -4 3
-6 -8 -5 -25 1 -16 -2 -32 -7 -35 -5 -3 -9 -18 -9 -34 0 -16 -5 -32 -12 -36
-7 -5 -8 -3 -3 6 5 9 4 11 -4 6 -9 -6 -9 -11 0 -22 9 -11 9 -14 -1 -14 -8 0
-10 -3 -7 -7 4 -3 1 -13 -6 -21 -10 -13 -9 -15 3 -8 9 4 8 2 -2 -7 -10 -8 -15
-16 -12 -20 3 -3 1 -13 -4 -24 -30 -57 -39 -85 -41 -122 -1 -8 -7 -11 -17 -7
-14 5 -15 4 -4 -9 12 -14 7 -20 -14 -16 -5 1 -4 -4 3 -12 9 -12 8 -16 -4 -21
-9 -3 -15 -14 -13 -23 2 -10 -4 -26 -13 -37 -10 -10 -15 -24 -12 -32 3 -8 0
-14 -6 -14 -5 0 -16 -10 -22 -22 -10 -20 -10 -22 2 -13 8 6 6 2 -4 -7 -11 -10
-15 -18 -11 -18 5 0 0 -7 -10 -15 -14 -11 -16 -15 -5 -15 10 -1 9 -3 -4 -11
-9 -6 -15 -14 -12 -20 4 -5 -1 -12 -9 -15 -9 -3 -16 -14 -16 -23 -1 -22 -25
-52 -35 -43 -5 4 -5 2 -2 -5 4 -6 0 -18 -9 -27 -8 -9 -12 -20 -9 -26 3 -5 -1
-10 -10 -10 -9 0 -13 -4 -10 -10 3 -5 -2 -10 -12 -11 -11 0 -13 -3 -5 -6 9 -3
5 -12 -13 -29 -14 -13 -22 -24 -18 -24 4 -1 -3 -8 -17 -16 -18 -11 -19 -14 -5
-9 14 4 9 -4 -15 -26 -19 -18 -35 -35 -35 -38 0 -3 -9 -15 -20 -27 -11 -12
-28 -33 -39 -47 -10 -15 -27 -29 -37 -32 -10 -4 -18 -9 -17 -13 5 -16 -26 -50
-40 -44 -9 3 -13 1 -9 -5 4 -6 0 -14 -9 -17 -8 -3 -12 -10 -9 -16 3 -5 0 -7
-9 -4 -9 3 -17 -2 -21 -15 -3 -12 -11 -19 -16 -16 -5 4 -9 2 -9 -4 0 -5 -13
-18 -29 -27 -17 -10 -28 -21 -25 -26 3 -4 -3 -8 -13 -8 -10 0 -25 -9 -33 -20
-8 -11 -20 -20 -26 -20 -7 0 -14 -5 -16 -10 -2 -6 -13 -12 -25 -13 -12 0 -20
-4 -17 -8 2 -4 -5 -10 -16 -14 -11 -4 -17 -11 -14 -17 5 -7 1 -9 -9 -5 -10 3
-17 2 -17 -4 0 -6 -4 -8 -9 -4 -5 3 -16 -2 -24 -10 -9 -8 -20 -15 -26 -15 -6
0 -11 -5 -11 -11 0 -6 -7 -9 -15 -5 -8 3 -15 1 -15 -3 0 -5 -7 -12 -16 -15
-10 -4 -13 -2 -8 7 4 6 -5 1 -21 -13 -16 -14 -25 -19 -21 -13 5 9 2 11 -8 7
-9 -3 -16 -10 -16 -15 0 -5 -6 -8 -12 -6 -7 1 -12 -5 -10 -13 3 -11 1 -12 -8
-4 -9 9 -18 8 -38 -2 -15 -8 -37 -14 -49 -14 -13 0 -23 -4 -23 -9 0 -6 -20 -9
-44 -8 -31 1 -42 -1 -35 -9 6 -8 -7 -11 -45 -10 -30 1 -53 -2 -50 -5 2 -4 -3
-10 -12 -13 -10 -4 -13 -2 -8 7 4 6 -3 3 -16 -8 -13 -11 -20 -15 -17 -9 4 7 0
15 -9 18 -10 4 -13 2 -8 -6 5 -8 2 -9 -9 -5 -10 4 -17 2 -17 -5 0 -7 -5 -6
-15 2 -11 9 -15 9 -15 1 0 -7 -5 -9 -10 -6 -6 4 -17 2 -25 -5 -10 -8 -15 -8
-21 1 -5 8 -3 9 6 4 9 -5 11 -4 6 4 -6 9 -11 9 -22 0 -8 -6 -14 -8 -14 -4 0 4
-8 1 -17 -6 -11 -10 -14 -10 -9 -1 9 16 -6 16 -23 0 -11 -10 -13 -10 -7 0 5 7
1 12 -9 12 -9 0 -14 -4 -11 -8 3 -5 -1 -9 -9 -9 -8 0 -12 4 -9 9 8 12 -10 10
-23 -3 -8 -8 -13 -8 -17 0 -13 21 -34 12 -31 -14 2 -20 -1 -23 -11 -14 -11 9
-11 5 -4 -20 5 -17 5 -31 1 -31 -4 0 -6 -15 -6 -32 1 -18 -4 -36 -9 -40 -7 -5
-7 -8 2 -8 10 0 10 -5 1 -21 -8 -16 -8 -20 1 -14 9 6 9 2 1 -14 -7 -11 -9 -21
-5 -21 3 0 2 -6 -5 -13 -8 -10 -7 -17 1 -25 7 -7 8 -12 4 -12 -5 0 -2 -8 5
-17 12 -14 12 -16 0 -8 -11 6 -13 3 -9 -13 4 -12 3 -22 0 -22 -12 0 -9 -85 2
-92 8 -5 8 -8 0 -8 -12 0 -12 -69 1 -89 5 -9 4 -12 -2 -8 -11 7 -11 -122 0
-140 4 -5 3 -13 0 -17 -12 -11 -9 -95 2 -88 5 3 4 -1 -3 -10 -10 -13 -10 -17
0 -21 7 -3 8 -6 2 -6 -13 -1 -6 -60 10 -80 9 -12 8 -13 -7 -8 -14 5 -16 3 -8
-12 6 -10 8 -30 5 -45 -3 -19 -1 -25 7 -21 8 6 8 2 0 -13 -8 -15 -8 -23 0 -28
8 -4 7 -9 -2 -15 -8 -5 -9 -9 -3 -9 6 0 11 -15 12 -32 0 -18 3 -46 7 -61 4
-22 3 -27 -7 -21 -7 4 -4 -3 7 -16 11 -13 15 -20 8 -17 -13 8 -12 -24 2 -55 4
-9 4 -22 0 -28 -4 -6 -1 -18 7 -27 9 -12 9 -15 1 -9 -7 4 -13 2 -13 -3 0 -6 5
-11 10 -11 6 0 10 -5 10 -11 0 -5 -5 -7 -11 -3 -8 4 -8 1 -1 -12 5 -11 8 -29
7 -41 -1 -12 2 -20 7 -17 10 7 6 -35 -5 -54 -5 -7 -2 -14 8 -18 12 -5 13 -9 4
-21 -10 -11 -9 -13 2 -11 15 3 15 -4 3 -36 -5 -14 -4 -17 5 -11 10 5 11 2 7
-13 -5 -14 -1 -24 11 -31 10 -6 13 -11 6 -11 -12 0 -11 -20 3 -62 4 -15 3 -19
-7 -14 -8 4 -6 1 4 -7 20 -16 23 -32 5 -21 -9 6 -9 3 0 -9 8 -9 11 -21 7 -27
-3 -5 0 -10 7 -10 9 0 9 -3 -2 -10 -13 -9 -8 -14 11 -12 4 1 5 -8 2 -18 -3
-11 1 -28 8 -37 12 -15 12 -16 -1 -8 -12 7 -13 6 -3 -7 7 -8 10 -17 7 -21 -11
-10 7 -48 19 -40 8 4 7 1 -1 -9 -9 -11 -10 -18 -2 -23 5 -3 10 -17 10 -31 0
-13 6 -24 13 -24 9 0 9 -2 -1 -9 -16 -10 -17 -21 -3 -30 6 -4 13 -23 15 -42 2
-18 8 -33 13 -32 5 1 10 -4 10 -12 0 -8 -5 -12 -10 -8 -5 3 -4 -4 2 -14 6 -11
7 -23 4 -27 -3 -3 0 -6 8 -6 11 0 11 -2 -1 -10 -13 -8 -12 -10 4 -10 11 0 16
-3 13 -7 -4 -3 -1 -13 6 -21 9 -12 9 -14 0 -9 -9 6 -8 -3 2 -28 9 -19 12 -35
8 -35 -5 0 -1 -5 7 -10 13 -9 13 -10 0 -10 -12 0 -13 -2 -1 -9 8 -5 14 -22 15
-39 0 -17 4 -28 9 -25 6 4 11 -12 8 -29 0 -5 4 -8 10 -8 5 0 8 -4 5 -8 -3 -5
1 -21 9 -36 8 -14 10 -24 5 -21 -6 3 -7 -1 -4 -9 3 -9 9 -14 14 -11 4 2 6 -7
4 -20 -1 -14 2 -23 7 -19 5 3 9 -6 9 -20 0 -14 4 -26 9 -26 5 0 12 -7 15 -16
3 -8 2 -12 -4 -9 -13 8 0 -26 17 -43 7 -8 11 -18 8 -23 -4 -5 -1 -9 6 -9 7 0
9 -3 6 -7 -4 -3 0 -17 9 -31 11 -17 12 -22 3 -17 -8 5 -6 -1 4 -13 11 -11 16
-26 12 -31 -3 -6 0 -14 9 -17 8 -3 13 -14 11 -25 -2 -11 0 -17 6 -14 5 4 9 -3
9 -15 0 -13 4 -19 11 -14 7 4 10 1 7 -7 -3 -8 2 -23 11 -33 13 -16 13 -18 1
-12 -8 4 -5 -1 8 -10 12 -9 22 -22 22 -28 0 -6 -5 -4 -10 4 -5 8 -10 10 -10 5
0 -6 7 -20 15 -31 8 -12 12 -24 10 -28 -3 -3 -2 -4 1 -2 12 9 32 -19 23 -30
-6 -8 -4 -14 6 -18 9 -3 13 -10 10 -16 -3 -5 -1 -10 4 -10 6 0 11 -9 11 -20 0
-11 4 -20 9 -20 5 0 13 -9 16 -20 3 -11 13 -27 21 -35 11 -10 12 -15 3 -15 -7
0 -2 -9 10 -19 14 -12 20 -25 15 -32 -4 -7 -3 -9 4 -5 12 7 26 -29 17 -44 -3
-6 1 -7 10 -4 10 4 15 2 13 -7 -2 -8 2 -13 9 -12 7 2 10 -3 7 -11 -3 -8 0 -17
5 -21 6 -3 8 -11 5 -17 -4 -6 -2 -8 4 -4 6 4 16 -8 23 -28 7 -19 15 -33 19
-31 3 2 11 -4 17 -14 11 -17 4 -20 -54 -24 -7 0 -13 -4 -13 -9 0 -5 -4 -7 -9
-3 -5 3 -12 1 -16 -5 -4 -7 -12 -7 -25 0 -13 7 -20 6 -22 -1 -2 -6 -23 -13
-46 -14 -24 -2 -50 -9 -59 -17 -14 -11 -16 -11 -8 2 7 12 6 13 -6 4 -8 -6 -22
-10 -31 -9 -10 2 -18 -1 -18 -7 0 -6 -6 -5 -15 2 -13 11 -14 10 -10 -2 4 -11
0 -14 -17 -13 -13 1 -27 -1 -33 -4 -5 -4 -15 -7 -21 -7 -14 1 -44 32 -38 39 3
3 -2 17 -11 31 -10 14 -13 26 -9 26 5 0 2 5 -6 10 -8 5 -16 14 -16 20 -1 5 -2
15 -3 21 0 5 -5 8 -9 5 -4 -2 -9 7 -10 22 -1 15 -7 29 -12 30 -6 2 -10 10 -10
17 0 8 -8 19 -17 24 -10 6 -14 11 -9 11 5 0 -4 11 -20 25 -26 22 -44 30 -66
26 -5 0 -8 5 -8 11 0 9 -4 8 -10 -2 -6 -9 -10 -10 -10 -3 0 15 -92 14 -102 -1
-5 -7 -8 -6 -8 3 0 11 -3 11 -15 1 -12 -10 -15 -10 -15 1 0 12 -2 12 -9 0 -5
-8 -16 -11 -25 -8 -9 4 -16 2 -16 -4 0 -6 -4 -7 -10 -4 -5 3 -18 1 -28 -4 -13
-7 -23 -6 -32 2 -10 9 -11 9 -5 -2 6 -11 3 -13 -13 -9 -13 4 -20 2 -19 -6 1
-6 -11 -10 -30 -10 -21 1 -31 -2 -26 -9 4 -6 0 -8 -10 -4 -10 4 -17 2 -17 -4
0 -6 -7 -9 -15 -5 -8 3 -15 1 -15 -5 0 -6 -4 -8 -9 -4 -5 3 -12 1 -16 -5 -4
-6 -11 -8 -16 -5 -5 4 -9 1 -9 -6 0 -8 -4 -8 -16 1 -12 11 -15 11 -12 1 2 -8
-8 -15 -22 -17 -13 -3 -28 -10 -32 -17 -4 -6 -8 -8 -8 -3 0 5 -6 4 -12 -2 -7
-6 -17 -11 -23 -11 -25 -3 -45 -13 -45 -24 0 -7 -4 -6 -10 3 -7 11 -10 11 -10
2 0 -7 -4 -10 -10 -7 -5 3 -10 1 -10 -4 0 -6 -3 -10 -7 -10 -22 4 -33 -3 -33
-18 0 -13 -2 -15 -8 -5 -7 10 -18 8 -53 -10 -24 -13 -46 -26 -49 -29 -3 -3
-13 -5 -22 -3 -11 1 -18 -4 -18 -14 0 -15 -2 -15 -10 -2 -6 10 -10 11 -10 3 0
-7 -6 -13 -14 -13 -8 0 -17 -6 -19 -12 -4 -9 -6 -8 -6 2 -1 11 -8 8 -22 -10
-16 -20 -20 -21 -15 -6 7 19 6 19 -13 2 -11 -10 -31 -19 -44 -20 -14 0 -23 -5
-19 -10 3 -5 -2 -7 -11 -3 -10 3 -17 3 -17 -2 0 -5 -9 -11 -20 -14 -13 -3 -18
-1 -14 6 3 7 -2 3 -10 -7 -12 -15 -16 -16 -16 -5 0 11 -2 12 -9 0 -6 -9 -11
-10 -15 -2 -5 8 -14 7 -29 -3 -12 -8 -38 -13 -57 -12 -19 1 -38 -2 -42 -8 -4
-6 -13 -4 -24 5 -10 8 -15 9 -11 3 8 -14 -59 -24 -72 -11 -5 5 -18 4 -31 -3
-18 -10 -21 -9 -15 1 6 9 3 11 -8 6 -10 -4 -27 -3 -40 2 -12 5 -32 5 -44 0
-17 -6 -23 -5 -23 6 0 16 -21 16 -32 0 -5 -6 -8 -3 -8 6 0 11 -9 15 -34 14
-26 0 -32 3 -28 14 3 9 1 12 -5 8 -6 -4 -14 -1 -16 5 -4 10 -6 10 -6 0 -1 -8
-11 -2 -27 13 -14 14 -30 22 -36 19 -8 -5 -9 -1 -5 10 4 10 3 15 -3 11 -6 -3
-13 1 -16 10 -6 13 -8 14 -15 3 -7 -10 -9 -9 -9 5 0 9 -5 17 -11 17 -5 0 -7 5
-4 10 3 5 -1 10 -11 10 -13 0 -14 3 -4 15 10 12 8 14 -7 11 -13 -3 -19 2 -20
17 -1 11 -6 23 -10 26 -4 3 -10 15 -11 26 -2 11 -8 25 -12 30 -11 13 -9 115 2
115 4 0 8 11 8 25 0 14 5 24 12 23 7 -2 12 3 13 11 0 8 9 17 20 22 13 5 15 8
5 9 -8 0 2 9 23 19 20 9 34 20 30 24 -3 4 8 7 26 7 19 0 30 4 26 10 -4 6 7 10
25 10 17 0 29 4 26 9 -4 5 3 7 14 4 12 -3 20 0 20 7 0 10 3 10 15 0 10 -8 15
-9 15 -2 0 6 7 9 15 6 8 -4 22 0 31 7 13 10 17 10 25 -2 7 -12 9 -12 9 1 0 9
3 11 8 5 9 -13 35 -18 27 -5 -3 5 -1 10 4 10 6 0 11 -6 11 -12 0 -9 4 -8 10 2
5 8 10 10 10 3 0 -12 17 -12 38 1 7 4 12 4 11 -1 -3 -18 2 -27 9 -16 6 10 17
8 45 -7 20 -11 37 -17 37 -13 0 4 7 -3 16 -15 8 -12 22 -22 30 -22 8 0 13 -4
9 -9 -3 -5 5 -17 17 -25 12 -9 19 -16 15 -16 -4 0 -1 -13 8 -30 9 -16 13 -30
9 -30 -4 0 -2 -6 5 -13 8 -10 7 -17 -1 -25 -9 -9 -9 -12 2 -12 9 0 11 -3 5 -8
-5 -4 -17 -16 -25 -26 -13 -18 -13 -19 0 -12 8 4 6 0 -5 -9 -11 -9 -20 -20
-20 -25 0 -6 -4 -10 -8 -10 -4 1 -15 -6 -23 -15 -9 -8 -22 -15 -30 -15 -8 0
-14 -4 -14 -8 0 -5 -39 -9 -88 -9 -48 0 -81 2 -74 4 6 3 12 9 12 14 0 6 -5 7
-11 3 -18 -11 -59 18 -75 53 -10 20 -15 50 -12 78 2 26 -1 45 -7 46 -5 0 -1 4
10 9 19 8 19 9 -3 9 -13 1 -21 5 -18 9 3 5 -15 9 -39 8 -24 0 -41 -4 -38 -9 3
-5 0 -8 -8 -5 -16 5 -42 -39 -32 -55 3 -6 1 -7 -5 -3 -7 4 -12 4 -13 -1 0 -4
-2 -16 -4 -26 -2 -9 1 -15 6 -11 5 3 9 1 9 -5 0 -5 -6 -12 -12 -14 -10 -4 -10
-6 0 -6 6 -1 12 -10 12 -21 0 -11 5 -20 11 -20 5 0 7 -4 4 -10 -3 -5 -1 -10 5
-10 6 0 8 -4 5 -10 -3 -5 1 -10 10 -10 11 0 15 -5 11 -16 -3 -8 -2 -12 4 -9 6
3 10 1 10 -5 0 -6 5 -8 10 -5 6 3 13 -1 16 -10 4 -9 13 -14 20 -11 8 3 14 -2
15 -12 0 -10 3 -12 6 -5 3 10 8 9 19 -1 8 -8 23 -13 34 -11 11 2 20 0 20 -4 0
-9 101 -8 116 1 6 4 14 4 18 1 10 -10 37 -13 31 -3 -3 4 2 11 11 14 8 3 12 2
9 -4 -11 -17 7 -11 21 8 11 14 13 14 14 2 0 -12 2 -12 9 -2 4 7 17 15 27 17
10 2 21 4 24 4 3 1 -2 6 -10 12 -12 8 -11 9 5 7 24 -5 86 52 88 81 0 11 6 19
12 18 5 -1 9 6 7 15 -2 10 2 18 7 18 6 0 8 7 5 15 -4 9 0 15 7 15 12 0 12 2 0
9 -8 5 -10 14 -6 21 5 9 4 11 -3 6 -7 -4 -12 -2 -12 3 0 6 5 11 11 11 8 0 9 4
0 13 -6 8 -8 17 -4 20 3 4 -1 9 -10 13 -9 3 -14 11 -11 19 3 7 -15 33 -39 59
-41 42 -56 51 -81 47 -5 -1 -6 5 -3 13 4 9 3 15 -1 15 -23 -4 -52 2 -48 9 3 5
0 9 -7 9 -7 0 -21 4 -31 9 -15 6 -18 4 -12 -7 4 -8 1 -7 -6 3 -11 12 -18 14
-32 6 -12 -7 -17 -7 -12 0 3 5 -7 12 -24 14 -17 3 -30 0 -30 -6 0 -6 -4 -6
-12 2 -7 7 -17 8 -30 1 -14 -8 -18 -6 -18 6 0 15 -2 15 -16 0 -14 -13 -19 -14
-25 -3 -6 9 -9 10 -9 1 0 -7 -7 -10 -16 -6 -9 3 -20 0 -25 -8 -7 -12 -9 -12
-9 0 0 10 -3 11 -13 2 -8 -6 -17 -8 -20 -4 -4 3 -7 0 -7 -7 0 -7 -3 -10 -7 -7
-3 4 -13 1 -21 -6 -9 -6 -13 -7 -9 -1 3 6 0 11 -8 11 -8 0 -12 -4 -9 -9 3 -4
-2 -8 -10 -8 -9 0 -16 -5 -16 -11 0 -6 -6 -9 -13 -6 -14 5 -60 -18 -96 -48
-15 -12 -21 -14 -16 -5 5 8 -3 3 -18 -12 -14 -16 -31 -28 -36 -28 -6 0 -8 -7
-5 -15 5 -13 -5 -19 -27 -17 -3 1 -5 -10 -4 -23 2 -13 -3 -26 -12 -29 -8 -3
-12 -10 -8 -16 3 -5 1 -18 -4 -29 -8 -14 -8 -21 2 -24 9 -4 9 -6 -1 -6 -10 -1
-10 -6 -1 -23 12 -22 11 -22 -7 -8 -18 14 -18 14 -1 -6 10 -12 15 -28 11 -38
-3 -9 -2 -16 3 -16 5 0 10 -6 10 -12 1 -23 8 -42 21 -56 7 -8 16 -28 19 -44 3
-17 9 -25 13 -18 4 7 12 0 20 -19 7 -17 16 -28 21 -25 5 3 9 -1 9 -9 0 -8 7
-17 15 -21 8 -3 15 -12 15 -20 0 -10 6 -13 15 -10 10 4 15 0 15 -15 0 -15 4
-19 17 -14 11 4 14 3 9 -5 -4 -7 -2 -12 5 -12 6 0 18 -8 26 -17 10 -12 12 -13
8 -3 -4 10 -2 9 8 -2 8 -10 17 -15 20 -11 4 3 7 0 7 -9 0 -8 11 -20 25 -26 14
-7 28 -19 32 -28 5 -13 7 -13 14 -2 7 10 9 9 9 -3 0 -18 26 -33 41 -24 5 4 6
-2 2 -11 -5 -14 -3 -16 12 -10 11 4 16 4 13 0 -10 -10 29 -47 41 -39 10 5 15
-7 12 -28 0 -4 2 -6 6 -6 19 3 36 -2 30 -8 -4 -3 3 -11 16 -18 12 -6 20 -18
19 -26 -2 -8 0 -11 4 -7 10 11 35 -12 27 -25 -3 -6 -1 -7 5 -3 7 4 12 2 12 -4
0 -6 4 -9 9 -5 5 3 12 -4 16 -15 3 -11 13 -20 21 -20 8 0 13 -3 13 -7 -4 -22
3 -32 16 -26 10 3 15 0 13 -8 -2 -8 2 -13 9 -12 7 2 10 -3 7 -11 -3 -9 3 -17
15 -21 11 -3 20 -12 18 -18 -1 -7 3 -11 10 -10 7 2 10 -6 8 -17 -3 -14 2 -20
15 -20 11 0 22 -11 28 -28 8 -22 7 -29 -4 -29 -7 0 -11 4 -9 8 5 6 -21 21 -28
16 -2 -1 -11 6 -21 15 -10 10 -24 18 -32 18 -9 0 -12 5 -8 12 5 8 0 9 -14 6
-12 -4 -22 -2 -22 4 0 5 -4 6 -10 3 -5 -3 -10 -1 -10 5 0 7 -6 10 -14 7 -8 -3
-20 1 -26 8 -9 10 -17 12 -30 5 -9 -5 -20 -6 -24 -3 -9 9 -36 15 -65 14 -14
-1 -22 2 -18 5 6 7 0 15 -54 74 -20 21 -39 36 -43 33 -3 -4 -6 1 -6 11 0 9 -4
15 -9 12 -5 -3 -12 2 -15 11 -6 15 -8 15 -17 3 -8 -12 -10 -10 -6 8 4 19 2 22
-14 17 -11 -4 -19 -2 -19 5 0 6 -4 8 -10 5 -5 -3 -10 -1 -10 5 0 6 -5 8 -10 5
-6 -3 -10 -1 -10 5 0 6 -5 8 -10 5 -6 -3 -10 -2 -10 3 0 6 -7 13 -16 16 -8 3
-12 2 -9 -4 12 -19 -7 -10 -27 13 -11 12 -17 16 -13 9 8 -15 2 -15 -40 2 -18
8 -36 12 -38 9 -3 -2 -15 1 -27 7 -15 8 -20 8 -16 1 11 -18 -5 -13 -21 6 -8
10 -11 12 -7 4 5 -11 2 -13 -13 -9 -12 3 -27 2 -34 -3 -7 -4 -21 -3 -31 2 -12
7 -18 6 -18 -1 0 -6 -4 -9 -9 -5 -5 3 -12 1 -16 -5 -3 -5 -12 -10 -18 -10 -7
0 -6 4 3 11 13 9 13 10 0 5 -8 -3 -23 -9 -33 -12 -16 -6 -21 -17 -18 -38 1 -5
-5 -6 -14 -3 -11 5 -15 -1 -15 -24 0 -17 6 -32 15 -35 8 -4 15 -13 15 -21 0
-8 5 -11 10 -8 6 4 18 1 27 -7 14 -11 16 -11 8 2 -8 13 -7 13 8 1 14 -11 17
-11 17 0 0 12 2 12 9 0 6 -9 11 -10 15 -2 4 6 20 9 36 7 17 -2 28 1 27 7 -1 6
14 11 36 11 30 0 37 3 32 15 -3 11 0 9 10 -3 8 -11 15 -15 15 -9 0 8 9 9 30 3
17 -5 30 -6 30 -2 0 4 5 0 10 -8 8 -13 10 -13 10 -1 0 11 3 12 11 4 6 -6 18
-9 27 -6 9 4 13 2 9 -4 -4 -6 0 -14 9 -17 8 -3 12 -2 9 4 -3 6 1 7 9 4 9 -3
13 -11 9 -18 -3 -6 -3 -8 1 -4 4 3 19 0 33 -7 15 -8 31 -11 36 -8 6 3 7 2 4
-4 -4 -5 6 -16 21 -24 43 -22 54 -36 35 -43 -9 -4 -18 -4 -21 -1 -3 3 1 5 8 5
7 0 10 3 7 6 -4 4 -13 1 -22 -6 -8 -7 -15 -9 -15 -4 0 5 -5 2 -10 -6 -8 -12
-10 -12 -10 5 0 15 -2 17 -9 6 -5 -7 -20 -13 -35 -13 -14 0 -26 -4 -26 -8 0
-4 -8 -7 -17 -7 -35 0 -44 -3 -38 -13 3 -6 -1 -7 -9 -4 -9 3 -16 1 -16 -5 0
-6 -7 -8 -15 -5 -8 4 -15 1 -15 -5 0 -6 -3 -10 -8 -9 -12 2 -46 -15 -66 -34
-10 -9 -23 -15 -27 -12 -5 3 -6 -1 -3 -9 3 -8 0 -18 -7 -23 -8 -5 -10 -3 -4 7
5 8 -1 6 -13 -5 -12 -10 -24 -28 -28 -40 -4 -11 -15 -32 -24 -46 -11 -16 -18
-41 -17 -67 1 -23 -1 -39 -5 -37 -4 2 -10 0 -13 -6 -4 -6 -1 -9 7 -8 7 2 12
-5 12 -15 -1 -9 2 -17 7 -17 5 0 9 -6 9 -13 0 -6 15 -26 33 -42 36 -32 117
-81 117 -69 0 3 8 0 17 -7 14 -12 16 -12 8 0 -6 11 -3 10 15 -2 17 -12 28 -14
43 -6 12 7 17 7 13 1 -8 -14 103 -9 129 5 11 6 25 12 30 13 28 6 55 21 55 30
0 5 3 9 7 8 5 -2 19 5 33 15 13 9 20 17 15 17 -6 0 -2 5 8 11 9 6 15 15 11 20
-3 5 -2 8 3 7 4 -2 9 2 11 7 2 6 10 14 18 18 8 5 12 12 9 18 -4 5 -1 9 6 9 8
0 7 5 -2 17 -10 11 -10 14 -1 9 13 -8 13 -8 17 77 1 31 -2 57 -8 57 -5 0 -4 7
3 15 10 12 10 15 0 15 -8 0 -10 3 -7 7 4 3 1 13 -6 21 -9 13 -9 14 0 8 9 -5
11 -2 7 8 -3 9 -11 13 -18 9 -6 -4 -5 1 3 11 12 15 12 17 0 14 -9 -2 -13 4
-11 17 5 26 13 34 19 18 3 -7 20 -13 38 -13 19 0 37 -4 40 -10 3 -6 17 -10 31
-10 14 0 23 -4 20 -8 -2 -4 5 -9 16 -9 11 -1 27 -11 35 -22 8 -12 21 -21 29
-21 8 0 14 -4 14 -10 0 -5 7 -10 16 -10 8 0 13 -4 10 -8 -3 -5 4 -14 14 -22
10 -8 17 -17 14 -22 -3 -4 0 -8 5 -8 6 0 10 -6 9 -12 -2 -7 3 -12 10 -10 8 1
11 -2 7 -8 -3 -5 -2 -10 3 -10 6 0 8 -9 5 -20 -3 -13 0 -20 8 -20 12 0 12 -2
1 -9 -11 -7 -11 -9 1 -14 9 -3 13 -16 12 -31 -2 -14 1 -28 6 -32 5 -3 7 -10 4
-15 -4 -5 -1 -9 6 -9 8 0 7 -5 -2 -17 -10 -11 -10 -14 -1 -9 7 4 12 1 12 -8 0
-9 5 -16 10 -16 6 0 10 -6 10 -13 0 -7 9 -18 20 -25 11 -7 17 -18 14 -27 -4
-10 0 -15 11 -15 9 0 13 -4 10 -10 -3 -5 1 -10 9 -10 9 0 16 -7 16 -16 0 -10
6 -14 15 -10 14 5 20 -6 16 -27 -1 -5 4 -7 11 -5 7 3 21 -4 30 -15 10 -11 18
-16 18 -12 0 4 9 -2 20 -15 11 -13 20 -20 20 -15 0 4 7 2 15 -5 8 -7 15 -9 15
-4 0 4 12 -3 27 -17 14 -13 23 -17 19 -9 -6 12 -5 12 6 -1 7 -9 19 -14 27 -11
9 3 11 0 6 -8 -6 -10 -4 -12 8 -7 9 3 19 2 22 -4 4 -5 11 -7 16 -4 5 4 9 2 9
-3 0 -6 7 -13 16 -16 8 -3 12 -2 9 4 -3 6 -2 10 3 10 6 0 13 -7 16 -16 4 -9
13 -14 21 -10 8 3 15 1 15 -4 0 -6 5 -10 11 -10 5 0 7 6 3 13 -4 6 3 3 16 -8
14 -12 20 -14 15 -5 -5 9 1 7 15 -5 14 -12 20 -14 15 -5 -8 13 -6 13 8 1 9 -7
23 -11 31 -8 8 3 16 2 18 -4 2 -5 13 -11 26 -14 16 -3 20 0 15 8 -5 9 -3 9 9
0 8 -7 18 -10 21 -6 4 3 7 1 7 -4 0 -6 8 -10 18 -8 9 1 21 0 26 -3 18 -10 55
-8 48 3 -3 6 0 6 9 -1 8 -6 26 -10 42 -9 15 1 27 -3 27 -9 0 -6 5 -4 10 4 9
13 10 13 10 0 0 -13 1 -13 10 0 5 8 10 10 10 4 0 -12 75 -12 86 -1 10 10 34
-5 27 -17 -4 -6 1 -5 10 3 12 9 17 10 17 2 0 -7 5 -9 10 -6 6 4 8 11 5 16 -3
5 1 6 9 3 9 -3 14 -9 12 -13 -3 -4 4 -7 14 -7 12 0 16 5 12 16 -5 12 -2 12 20
-2 19 -13 29 -15 34 -6 5 7 3 8 -6 3 -9 -5 -11 -4 -6 4 4 6 12 8 19 4 12 -8
58 -9 73 -2 5 3 37 5 71 4 35 0 59 4 55 9 -3 5 2 7 11 3 10 -4 17 -1 17 6 0 8
4 6 10 -3 5 -8 10 -10 10 -4 0 5 15 10 33 10 17 -1 37 3 43 9 6 6 27 10 47 9
22 -1 37 3 37 10 0 6 5 4 10 -4 8 -12 10 -12 10 5 0 14 3 16 9 7 6 -10 10 -10
21 3 8 10 16 12 24 6 8 -7 21 -6 37 3 17 8 33 10 48 4 20 -7 22 -6 12 6 -11
13 -8 14 14 10 15 -3 24 -1 21 4 -3 5 6 8 19 6 14 -1 25 2 25 8 0 6 9 8 19 5
11 -3 30 2 42 11 12 8 19 10 15 4 -11 -18 5 -14 27 5 12 11 17 12 12 4 -6 -11
-5 -12 6 -5 27 17 79 32 79 22 0 -5 5 -6 10 -3 6 4 8 9 6 13 -2 4 6 8 17 8 12
1 33 5 47 9 14 4 34 8 44 9 11 1 22 8 24 14 2 7 8 9 13 6 6 -3 20 2 31 13 12
10 18 13 15 6 -8 -12 30 -6 49 8 6 5 14 6 17 2 4 -3 7 -1 7 6 0 8 7 11 15 7 8
-3 15 -1 15 4 0 6 3 9 8 9 18 -3 33 2 28 9 -2 4 3 8 12 9 32 2 50 9 68 23 10
8 15 10 11 3 -4 -6 -3 -14 3 -18 5 -3 10 0 10 8 0 20 25 28 39 14 9 -9 11 -8
6 3 -4 11 1 16 16 17 12 1 25 6 28 11 3 5 14 8 23 7 9 -2 19 4 22 12 3 8 10
11 16 8 5 -3 10 0 10 7 0 10 2 10 9 -1 7 -11 11 -10 20 5 6 11 11 15 11 10 0
-5 7 -3 15 4 10 8 15 9 15 2 0 -6 7 -9 15 -6 8 4 17 -1 21 -10 3 -9 10 -14 14
-11 4 3 11 -2 14 -11 4 -9 13 -14 22 -10 9 3 12 2 9 -5 -4 -6 2 -13 14 -16 11
-3 18 -9 15 -14 -3 -5 2 -9 11 -9 8 0 18 -6 21 -14 3 -8 18 -16 35 -20 17 -3
29 -12 29 -21 0 -13 13 -20 24 -12 2 1 13 -9 25 -23 11 -14 20 -21 21 -16 0 5
9 -1 19 -13 14 -16 21 -18 24 -9 4 9 6 7 6 -4 1 -9 15 -21 31 -27 17 -5 30
-15 30 -21 0 -7 5 -10 12 -8 7 3 23 -7 36 -21 14 -14 18 -17 11 -6 -13 18 -13
19 3 7 10 -8 17 -17 16 -20 -2 -18 3 -32 12 -32 13 0 56 -43 53 -52 -2 -4 4
-5 12 -2 8 4 17 -1 21 -10 3 -9 10 -13 15 -10 5 3 9 0 9 -6 0 -6 4 -8 10 -5 6
3 10 3 10 -2 0 -4 11 -13 25 -20 14 -6 22 -7 19 -1 -4 6 1 6 12 -1 18 -9 37
-16 59 -21 6 -1 16 -7 24 -13 12 -9 13 -9 7 1 -4 6 -2 12 3 12 6 0 11 -4 11
-10 0 -5 7 -7 15 -4 8 4 15 1 15 -6 0 -10 3 -10 15 0 13 11 14 10 10 -3 -4 -8
-1 -18 6 -23 8 -4 10 -3 5 4 -4 7 -2 12 3 12 6 0 11 -4 11 -10 0 -5 7 -10 15
-10 8 0 15 -6 15 -12 0 -10 2 -10 9 0 7 11 10 10 15 -3 3 -9 12 -15 18 -13 7
3 19 -1 26 -9 8 -7 17 -11 22 -8 4 3 11 -2 14 -11 3 -8 10 -12 16 -9 5 3 10 1
10 -6 0 -8 4 -8 16 1 12 11 15 11 12 -1 -2 -8 3 -13 10 -11 6 1 12 -3 12 -9 0
-8 6 -7 17 2 15 12 16 12 10 -3 -6 -17 2 -22 31 -19 6 1 12 -2 12 -7 0 -5 11
-8 24 -7 17 2 23 -1 20 -10 -4 -9 2 -13 21 -10 15 1 29 -3 32 -11 2 -7 12 -10
20 -7 12 5 14 3 8 -8 -8 -12 -6 -12 9 0 15 12 17 12 14 0 -2 -9 4 -13 16 -11
13 2 16 -1 10 -10 -6 -10 -4 -10 9 1 14 11 18 11 23 -3 3 -9 10 -14 14 -11 5
3 25 -4 46 -16 20 -11 50 -21 66 -21 18 -1 27 -6 24 -13 -5 -14 42 -8 62 8 10
8 16 7 23 -4 7 -11 9 -11 9 0 0 7 6 11 15 7 8 -3 15 -1 15 5 0 6 7 9 15 6 8
-4 17 -1 21 5 5 7 2 8 -6 3 -9 -5 -11 -4 -6 4 6 9 11 9 22 0 10 -8 14 -8 14 0
0 6 5 11 11 11 5 0 7 -6 3 -12 -4 -7 1 -5 12 4 11 10 30 16 41 13 15 -2 20 1
17 9 -3 9 3 13 18 13 48 1 59 3 53 13 -3 5 0 7 8 4 8 -3 18 -1 21 5 4 6 13 8
20 5 8 -3 17 -1 21 5 3 6 17 11 31 11 14 0 23 4 19 9 -3 6 4 8 15 6 11 -2 20
1 20 7 0 6 3 8 7 5 3 -4 13 -1 21 6 13 10 15 9 8 -3 -4 -8 1 -5 12 8 14 15 22
18 25 10 4 -9 8 -10 14 -2 10 13 41 27 65 29 10 1 24 8 32 14 8 6 20 10 27 9
8 -2 13 2 12 8 -1 6 9 10 22 8 14 -1 25 1 25 6 0 10 49 24 70 21 8 -2 12 0 8
5 -13 12 35 32 54 22 13 -6 22 -3 34 11 17 20 49 18 37 -3 -4 -6 1 -4 11 4 10
8 28 14 40 15 13 0 20 5 18 14 -3 12 0 12 12 1 13 -10 16 -10 16 0 0 7 8 10
20 7 11 -3 18 0 17 6 -1 6 3 11 10 12 7 0 21 8 32 17 11 9 22 14 25 11 3 -4 6
-1 6 6 0 7 5 9 12 5 8 -5 9 -2 5 10 -4 11 -3 15 4 10 6 -3 19 3 30 15 11 12
16 21 12 21 -4 1 4 8 20 16 15 8 27 19 27 24 0 6 9 10 19 10 10 0 21 7 25 15
3 8 9 15 13 14 21 -4 33 2 27 13 -5 8 -2 9 9 5 10 -3 17 -2 17 4 0 6 5 7 10 4
6 -3 10 2 10 12 0 12 3 14 8 6 5 -8 13 -9 22 -3 8 6 11 10 7 10 -4 0 -2 6 5
14 7 8 16 12 20 10 3 -2 13 2 21 10 8 8 17 12 21 9 3 -3 8 2 12 11 3 9 10 13
15 10 5 -3 9 0 9 5 0 6 7 11 15 11 9 0 18 7 21 15 4 8 10 12 16 9 5 -3 18 3
29 15 18 19 32 25 51 22 4 0 4 7 1 16 -4 9 -2 14 3 10 6 -3 23 5 39 19 26 22
30 23 52 9 12 -9 23 -12 23 -9 0 4 10 -1 22 -12 14 -13 19 -14 14 -4 -4 8 0 6
8 -4 11 -14 16 -15 16 -6 0 9 4 8 14 -5 8 -11 19 -16 30 -12 9 4 16 2 16 -4 0
-6 4 -7 10 -4 6 3 10 1 10 -4 0 -6 11 -11 25 -11 14 0 25 -4 25 -8 0 -5 6 -9
14 -9 28 0 76 -25 69 -37 -4 -6 1 -5 10 3 9 7 17 9 17 4 0 -5 7 -10 15 -11 8
-1 22 -3 30 -4 8 -1 15 -5 15 -9 0 -5 7 -6 16 -2 10 4 20 -1 26 -11 5 -9 13
-14 18 -11 5 3 22 -1 38 -9 23 -12 32 -12 42 -3 10 9 11 9 6 0 -5 -8 -1 -13 9
-13 9 0 14 -4 11 -8 -3 -4 8 -7 25 -6 16 1 29 -2 29 -6 0 -5 9 -7 20 -5 11 2
20 0 20 -6 0 -5 10 -9 23 -9 13 0 29 -6 36 -12 11 -10 13 -10 7 0 -4 6 -2 12
3 12 6 0 11 -5 11 -11 0 -6 7 -8 16 -5 10 4 13 2 8 -6 -5 -7 0 -9 14 -6 12 4
22 2 22 -4 0 -5 5 -6 12 -2 6 4 17 -1 25 -11 7 -11 13 -13 13 -7 0 9 5 10 19
2 14 -7 21 -6 24 3 4 9 6 9 6 -1 1 -7 6 -10 11 -7 6 3 10 -2 11 -12 0 -10 3
-13 6 -5 6 15 30 16 35 1 3 -9 11 -8 28 1 23 12 24 12 11 -4 -12 -14 -12 -16
3 -10 9 4 16 1 16 -6 0 -10 3 -10 14 -1 10 8 16 9 21 1 9 -15 38 -13 30 3 -4
6 -1 5 7 -3 7 -9 21 -14 31 -12 9 2 17 -2 17 -8 0 -6 4 -9 8 -6 4 2 14 1 22
-4 7 -4 24 -4 37 1 15 5 22 5 19 0 -9 -14 16 -20 37 -9 11 5 17 5 17 -2 0 -5
7 -10 15 -10 8 0 15 6 15 13 0 9 2 9 9 -1 10 -17 62 -23 78 -10 9 7 14 6 19
-5 6 -16 20 -17 42 -4 6 5 12 4 12 -1 0 -10 30 -9 47 1 6 4 15 2 19 -4 5 -8 3
-9 -6 -4 -9 5 -11 4 -6 -4 6 -8 12 -9 20 -2 9 7 17 7 26 -2 7 -6 10 -7 7 -1
-4 8 12 10 53 7 45 -3 60 -1 60 9 0 9 3 9 10 -2 5 -8 12 -11 16 -7 4 4 14 1
22 -6 10 -8 13 -8 9 -1 -4 7 1 15 10 19 10 3 19 2 21 -3 2 -6 17 -6 38 -2 19
4 48 7 64 6 17 -1 30 1 30 5 0 4 12 6 26 3 14 -3 23 -1 20 4 -3 5 3 8 12 8 59
0 83 5 76 15 -4 8 0 8 15 0 17 -10 22 -9 28 4 5 13 7 14 14 3 6 -9 9 -10 9 -1
0 7 6 10 14 7 8 -3 17 0 21 5 3 6 11 9 16 6 5 -4 15 -3 22 2 6 4 18 8 26 10 8
1 17 7 21 13 6 9 9 9 15 0 5 -8 11 -8 23 2 31 24 63 39 72 33 6 -4 10 -2 10 2
0 5 18 17 40 27 22 10 40 23 40 29 0 8 3 7 9 -2 7 -11 10 -9 16 8 4 13 12 20
20 17 7 -2 16 2 19 10 3 9 11 12 17 8 7 -4 9 -3 6 3 -7 11 20 28 38 24 6 -2 7
0 4 4 -9 8 35 55 51 55 10 0 9 4 -1 17 -9 10 -9 14 -2 10 12 -8 40 30 35 47
-2 5 4 6 13 2 10 -3 13 -2 10 5 -4 5 1 21 10 36 9 14 12 22 6 19 -16 -10 -13
1 6 24 13 14 20 17 30 8 10 -8 12 -7 7 5 -4 12 -1 14 15 10 12 -3 27 -1 34 5
6 5 26 12 42 13 42 5 68 35 54 61 -9 16 -8 19 2 13 9 -6 11 -3 6 8 -3 10 -2
17 2 17 5 0 8 11 7 25 -2 13 2 23 8 22 6 -1 10 5 8 14 -1 9 4 19 13 23 8 3 15
12 15 20 0 24 65 87 77 75 8 -8 13 -7 18 2 6 8 4 10 -6 4 -12 -7 -12 -6 0 6
10 11 15 11 18 1 3 -6 10 -9 16 -5 7 4 6 0 -1 -10 -8 -9 -11 -20 -8 -25 3 -6
-1 -15 -10 -22 -8 -7 -13 -19 -10 -27 3 -8 -1 -16 -9 -20 -13 -5 -13 -7 2 -20
10 -8 12 -12 6 -8 -15 7 -15 7 -17 -58 0 -26 3 -47 7 -47 5 0 5 -5 1 -11 -3
-6 0 -15 7 -20 12 -7 11 -9 -1 -9 -11 -1 -10 -4 4 -15 11 -8 14 -15 8 -15 -7
0 -5 -8 6 -20 9 -10 27 -30 39 -44 12 -13 19 -27 15 -32 -4 -4 1 -4 11 -1 11
4 17 1 17 -8 0 -14 12 -19 33 -16 4 0 7 -3 7 -9 0 -5 9 -10 21 -10 13 0 18 -4
13 -12 -5 -8 -2 -9 9 -5 10 4 17 2 17 -4 0 -6 9 -9 20 -6 11 3 20 2 20 -3 0
-9 122 -6 139 4 6 4 11 1 11 -6 0 -8 4 -7 11 4 5 10 16 15 24 12 8 -4 15 -1
15 6 0 6 5 8 10 5 6 -3 10 -2 10 4 0 6 6 8 13 5 7 -2 24 6 37 18 14 13 28 23
32 23 13 0 40 44 33 55 -4 6 1 7 11 3 13 -5 15 -2 9 17 -5 15 -4 20 4 16 10
-7 16 7 11 29 -7 32 -6 41 4 54 8 11 8 13 0 8 -8 -4 -18 8 -28 33 -9 22 -20
40 -26 40 -5 0 -10 7 -10 15 0 9 -7 18 -15 21 -8 4 -12 10 -9 15 3 5 -2 9 -10
9 -9 0 -16 5 -16 11 0 5 -3 8 -7 6 -11 -5 -43 30 -35 38 4 4 2 6 -3 5 -23 -5
-46 1 -40 10 4 6 -7 10 -24 10 -17 0 -31 5 -31 10 0 6 -11 10 -25 10 -14 0
-25 6 -25 13 0 8 -4 7 -10 -3 -8 -12 -10 -12 -10 -1 0 8 -3 11 -7 8 -3 -4 -13
-1 -21 6 -11 8 -14 9 -9 0 5 -8 1 -11 -12 -10 -14 1 -17 5 -11 12 7 8 3 11
-10 10 -11 -1 -23 -4 -26 -8 -11 -10 -26 -8 -19 2 3 5 -3 12 -12 14 -17 4 -17
5 0 6 9 0 17 6 17 13 0 6 3 8 6 5 4 -4 15 3 25 14 10 12 23 18 30 13 8 -5 9
-3 4 6 -6 10 -4 12 9 7 10 -4 15 -3 11 3 -3 6 3 10 14 10 11 0 23 5 26 10 4 6
11 8 16 5 5 -4 9 -2 9 4 0 5 9 8 20 6 11 -2 20 1 20 6 0 6 9 7 21 4 15 -5 19
-4 15 4 -9 14 0 14 25 0 17 -8 23 -7 35 8 10 13 13 14 9 2 -5 -12 1 -15 25
-14 17 1 33 -2 36 -7 3 -4 18 -8 33 -8 15 0 33 -6 40 -12 11 -11 12 -10 6 2
-8 13 -6 13 7 2 13 -10 17 -10 21 0 4 10 8 10 16 -2 8 -11 11 -12 11 -2 0 7 5
10 10 7 6 -3 10 -1 10 6 0 7 3 10 6 6 14 -14 36 24 30 51 -4 15 -7 32 -8 39
-1 7 -8 15 -15 17 -9 4 -12 1 -8 -7 4 -6 0 -4 -9 7 -8 10 -19 15 -25 12 -5 -4
-14 2 -20 11 -7 12 -10 13 -11 4 0 -11 -3 -11 -15 -1 -12 10 -15 10 -15 -1 0
-8 -6 -5 -15 7 -11 13 -13 14 -9 3 4 -13 -1 -16 -22 -13 -15 1 -30 8 -34 14
-5 8 -9 7 -13 -4 -4 -10 -16 -14 -36 -11 -18 2 -35 -2 -42 -11 -9 -11 -15 -12
-25 -3 -10 8 -14 8 -14 0 0 -6 -5 -11 -11 -11 -5 0 -7 6 -3 13 6 9 5 9 -8 0
-8 -7 -19 -9 -23 -5 -5 4 -5 -1 -2 -10 4 -13 1 -16 -15 -13 -11 2 -32 -3 -46
-13 -14 -9 -28 -15 -30 -14 -2 2 -7 0 -10 -4 -4 -4 -1 -4 7 1 9 5 12 4 7 -3
-4 -7 -16 -12 -27 -12 -10 0 -19 -4 -19 -10 0 -5 -7 -10 -15 -10 -8 0 -15 -7
-15 -16 0 -8 -4 -13 -9 -9 -6 3 -14 -3 -20 -12 -6 -10 -11 -15 -11 -10 0 4 -9
-2 -20 -13 -12 -12 -18 -26 -14 -32 4 -7 3 -8 -4 -4 -7 4 -12 2 -12 -3 0 -6
-8 -11 -17 -11 -15 0 -16 -2 -3 -10 9 -6 10 -10 3 -10 -6 0 -18 -6 -25 -13 -8
-8 -22 -10 -38 -6 -15 4 -18 7 -8 8 9 1 20 6 24 13 5 7 3 8 -7 3 -12 -8 -12
-6 0 8 7 9 18 14 24 10 6 -3 7 -1 3 6 -4 6 0 14 8 17 9 3 13 11 9 17 -4 6 0 8
11 4 9 -4 15 -3 12 1 -5 9 15 38 29 40 6 1 10 6 10 11 0 16 15 25 16 10 0 -8
4 -4 10 9 5 13 13 21 18 18 9 -6 26 22 23 37 -1 4 1 6 5 6 20 -3 34 2 28 11
-3 6 1 10 9 10 9 0 16 5 16 11 0 6 6 9 14 6 10 -4 13 0 11 14 -4 18 -2 19 12
7 15 -11 16 -11 10 5 -4 10 -3 16 2 13 5 -3 19 3 31 14 13 11 27 20 32 20 5 0
6 5 2 12 -5 8 -2 9 10 5 13 -5 17 -3 13 7 -3 8 1 13 11 12 10 0 16 5 14 13 -2
8 3 11 13 8 8 -4 15 -2 15 4 0 6 4 7 10 4 6 -3 7 1 4 10 -4 9 -3 15 2 14 22
-4 34 2 34 17 0 14 2 15 17 3 11 -10 14 -10 9 -1 -4 6 -3 12 3 12 6 0 7 8 4
17 -5 11 -2 15 8 12 8 -3 34 14 59 40 25 24 38 41 30 37 -8 -4 -4 2 9 13 13
12 19 21 15 21 -5 1 0 8 11 18 11 9 21 26 23 37 2 11 10 25 18 31 7 6 11 14 7
18 -4 4 -1 11 7 16 8 6 10 10 4 10 -6 0 -11 7 -11 15 0 8 4 12 8 9 4 -2 10 0
14 6 3 5 0 10 -7 10 -8 0 -9 3 -3 8 13 9 17 32 6 32 -14 0 -21 29 -9 36 6 4 8
3 4 -4 -3 -6 -2 -13 3 -16 7 -5 8 22 1 32 -2 1 -3 5 -4 10 -1 4 -7 17 -14 30
-7 12 -10 22 -6 22 4 0 -2 8 -13 17 -11 10 -22 26 -26 36 -4 10 -11 15 -17 12
-5 -3 -10 0 -10 8 0 8 -9 17 -21 20 -13 4 -18 10 -13 18 4 8 3 10 -4 5 -7 -4
-12 -2 -12 4 0 6 -4 9 -9 5 -5 -3 -12 -1 -16 5 -4 6 -11 8 -16 5 -5 -4 -9 -1
-9 4 0 6 -11 11 -25 11 -14 0 -25 5 -25 11 0 7 -9 9 -21 6 -15 -4 -18 -2 -10
7 7 9 3 12 -17 11 -15 -1 -40 5 -56 13 -20 10 -26 10 -21 1 6 -8 4 -10 -6 -3
-28 17 -169 26 -169 10 0 -6 -5 -4 -10 4 -5 8 -10 10 -10 4 0 -6 -12 -11 -27
-10 -16 0 -27 -4 -26 -10 1 -6 -13 -9 -32 -8 -22 2 -35 -2 -39 -12 -3 -9 -11
-12 -17 -8 -7 4 -18 -1 -25 -10 -7 -10 -16 -17 -21 -18 -4 0 -7 -4 -6 -9 2 -4
-4 -6 -12 -3 -8 4 -15 1 -15 -5 0 -6 -7 -11 -15 -11 -8 0 -14 -3 -14 -7 3 -19
-2 -34 -9 -29 -5 3 -15 -7 -23 -22 -8 -15 -18 -30 -22 -33 -14 -10 -16 -119
-3 -119 6 0 4 -5 -4 -10 -10 -6 -11 -10 -2 -10 6 0 12 -6 12 -14 0 -8 7 -22
16 -30 8 -9 13 -16 9 -16 -3 0 5 -11 19 -25 14 -14 28 -25 31 -25 3 0 14 -9
25 -20 12 -12 25 -18 30 -15 6 4 10 1 10 -5 0 -7 7 -10 15 -6 8 3 15 2 15 -3
0 -21 159 -37 193 -19 11 5 17 5 17 -2 0 -5 5 -10 11 -10 5 0 8 4 5 9 -3 5 12
11 35 15 22 3 42 13 45 21 4 8 10 12 15 9 5 -3 9 0 9 6 0 6 3 9 8 7 4 -3 13 1
20 9 7 8 9 14 5 14 -4 0 0 5 10 11 9 6 15 14 12 19 -3 4 2 11 11 14 8 3 13 10
9 15 -3 5 -1 12 4 16 6 3 7 13 4 22 -5 12 -3 14 8 8 12 -8 12 -6 0 8 -10 13
-10 17 -1 17 9 0 7 7 -4 25 -9 14 -14 31 -10 37 4 7 3 8 -4 4 -7 -4 -12 -2
-12 3 0 6 -6 11 -14 11 -8 0 -17 6 -19 13 -4 9 -8 9 -15 -2 -8 -11 -10 -11
-14 0 -5 12 -9 12 -28 1 -16 -10 -20 -10 -15 -1 5 8 4 10 -3 5 -7 -4 -12 -15
-12 -25 0 -9 -6 -23 -12 -30 -7 -8 -8 -11 -2 -8 7 4 11 -10 12 -39 2 -34 -1
-43 -10 -38 -9 5 -8 2 1 -10 12 -15 12 -17 0 -14 -8 2 -13 -2 -12 -9 2 -6 -6
-15 -17 -18 -11 -4 -20 -11 -20 -16 0 -5 -9 -9 -21 -9 -11 0 -18 -4 -15 -8 3
-5 -5 -8 -17 -7 -12 1 -28 -2 -34 -8 -9 -6 -13 -5 -13 4 0 8 -6 6 -16 -7 -8
-10 -13 -13 -9 -6 6 12 -5 16 -37 13 -10 -1 -18 4 -18 11 0 9 -3 9 -10 -2 -5
-8 -10 -10 -10 -5 0 6 -9 16 -21 23 -15 10 -19 10 -14 1 5 -8 4 -10 -3 -5 -7
4 -12 14 -12 23 0 9 -6 13 -15 9 -8 -3 -14 -2 -14 2 3 19 -2 33 -10 28 -4 -3
-8 4 -7 17 0 12 -4 21 -10 20 -12 -2 -12 25 -1 44 4 6 1 14 -5 16 -10 4 -10 6
0 6 6 1 12 12 12 26 0 16 6 25 15 25 8 0 15 5 15 11 0 5 -6 7 -12 3 -7 -4 7
12 30 35 24 22 50 41 58 41 9 0 12 5 9 10 -3 6 3 10 14 10 12 0 21 6 21 13 0
8 4 7 10 -3 7 -11 10 -11 10 -2 0 10 5 10 21 1 12 -6 19 -7 15 -1 -9 15 26 25
36 10 6 -10 10 -10 19 2 8 11 12 12 16 3 3 -9 10 -10 24 -3 14 8 19 7 19 -2 0
-9 3 -9 10 2 6 10 10 11 10 3 0 -8 11 -11 30 -9 17 2 35 -3 41 -10 6 -8 17
-14 23 -14 6 0 4 5 -4 10 -12 7 -10 9 7 7 12 0 19 -5 17 -9 -4 -7 18 -10 42
-7 4 0 10 -4 13 -9 3 -6 15 -12 26 -14 11 -1 27 -11 36 -20 9 -10 19 -15 23
-11 3 3 6 -1 6 -10 0 -9 7 -17 16 -17 9 0 18 -9 21 -20 3 -11 10 -17 17 -13 6
3 8 3 4 -2 -4 -4 -2 -15 5 -23 10 -13 9 -15 -3 -8 -12 6 -12 5 1 -6 10 -9 15
-28 14 -58 -3 -77 -4 -82 -17 -74 -10 6 -10 4 0 -8 7 -9 9 -18 3 -20 -5 -1
-11 -10 -13 -18 -4 -19 -21 -39 -30 -34 -3 2 -4 -6 0 -18 3 -11 1 -19 -4 -16
-5 3 -18 -4 -29 -15 -11 -11 -14 -16 -6 -12 9 5 12 4 7 -3 -4 -7 -12 -12 -17
-12 -16 0 -39 -27 -31 -35 4 -5 2 -5 -5 -1 -7 4 -21 -2 -32 -13 -11 -11 -22
-17 -25 -13 -3 3 -6 0 -6 -7 0 -7 -4 -9 -10 -6 -5 3 -10 1 -10 -5 0 -6 -4 -9
-8 -6 -5 3 -23 -4 -41 -15 -18 -11 -29 -14 -25 -8 5 9 2 10 -10 6 -10 -4 -22
-7 -27 -7 -6 0 -7 -6 -3 -13 5 -8 2 -8 -9 2 -14 11 -17 11 -17 0 0 -11 -2 -11
-10 1 -7 11 -10 11 -10 2 0 -7 -4 -10 -10 -7 -5 3 -19 1 -30 -5 -11 -6 -20 -7
-20 -2 0 5 -7 9 -15 9 -8 0 -15 -3 -15 -6 0 -3 -22 -6 -49 -6 -27 0 -47 4 -43
9 3 5 -2 7 -11 3 -10 -4 -17 -1 -17 5 0 7 -7 3 -16 -8 -8 -10 -13 -14 -11 -9
3 6 -1 16 -9 23 -8 7 -14 8 -14 3 0 -6 -13 -9 -30 -8 -16 1 -30 6 -30 10 0 4
-10 2 -22 -4 -20 -11 -21 -10 -11 3 11 13 8 15 -17 13 -17 -1 -30 2 -30 6 0 5
-7 6 -15 3 -8 -4 -15 -2 -15 4 0 5 -12 8 -26 6 -17 -1 -24 2 -21 10 4 9 -4 12
-24 11 -16 -1 -29 2 -29 7 0 4 -7 8 -16 8 -9 0 -23 8 -31 18 -14 16 -14 16 -9
-3 5 -17 4 -18 -6 -5 -13 15 -93 55 -113 55 -5 1 -9 6 -8 12 1 6 -5 10 -15 9
-9 -2 -23 4 -30 13 -12 14 -13 14 -8 -4 5 -17 3 -16 -15 5 -11 14 -17 18 -13
10 7 -13 5 -13 -9 -1 -9 7 -17 10 -17 7 0 -4 -7 0 -16 8 -8 9 -20 14 -25 11
-5 -4 -9 -2 -9 4 0 5 -8 8 -17 6 -10 -1 -28 7 -40 18 -17 15 -23 17 -23 6 -1
-11 -3 -10 -10 3 -6 9 -18 15 -27 14 -10 -2 -24 3 -31 11 -8 7 -18 11 -23 8
-4 -3 -19 1 -32 10 -13 8 -27 12 -30 8 -4 -3 -7 -1 -7 5 0 7 -5 12 -11 12 -5
0 -7 -5 -4 -11 8 -13 -37 12 -47 26 -5 6 -8 4 -8 -5 0 -9 -3 -11 -8 -5 -9 13
-74 36 -66 24 3 -5 0 -9 -5 -9 -6 0 -11 5 -11 11 0 5 -4 8 -9 4 -5 -3 -12 -1
-16 5 -4 6 -11 8 -16 4 -5 -3 -17 0 -26 8 -14 11 -16 11 -8 -2 8 -13 7 -13 -8
-1 -14 11 -17 11 -17 0 0 -11 -2 -11 -10 1 -8 12 -11 13 -19 1 -7 -11 -9 -11
-14 0 -4 12 -7 11 -16 -1 -9 -13 -11 -12 -12 5 0 11 -3 15 -5 8 -3 -7 -12 -9
-21 -6 -12 5 -14 3 -8 -8 7 -11 6 -12 -6 -2 -12 10 -18 10 -29 0 -10 -10 -11
-9 -5 3 6 11 3 10 -12 -3 -11 -9 -23 -14 -26 -10 -4 3 -13 -2 -21 -12 -8 -12
-18 -15 -27 -10 -8 5 -11 5 -7 0 4 -4 2 -15 -5 -23 -10 -13 -9 -15 3 -8 8 4 6
0 -4 -8 -11 -9 -16 -16 -10 -16 5 0 1 -5 -10 -11 -15 -9 -16 -13 -5 -20 11 -7
10 -9 -4 -9 -10 0 -16 -4 -12 -9 3 -5 1 -12 -5 -16 -6 -4 -8 -10 -5 -15 3 -4
-2 -10 -10 -14 -8 -3 -12 -11 -10 -18 3 -8 -3 -23 -14 -35 -11 -12 -23 -33
-27 -48 -4 -17 -11 -24 -21 -21 -9 4 -12 1 -7 -7 5 -9 4 -9 -6 0 -7 6 -19 9
-26 6 -8 -3 -14 0 -14 6 0 9 -5 9 -21 0 -15 -8 -19 -8 -15 0 7 11 -4 15 -36
12 -10 -1 -18 2 -18 7 0 11 -19 10 -37 -1 -9 -5 -11 -3 -8 6 4 9 -3 13 -25 11
-16 -1 -30 2 -30 8 0 5 -10 6 -21 3 -12 -4 -19 -3 -16 2 3 5 -7 8 -24 7 -16
-1 -29 3 -29 8 0 6 -6 5 -15 -2 -12 -10 -15 -10 -15 1 0 10 -14 14 -47 15 -36
0 -48 4 -47 14 1 25 16 50 25 44 5 -3 9 2 9 10 0 8 9 24 21 35 12 11 18 24 15
29 -3 6 1 12 9 16 8 3 15 11 15 18 0 6 10 23 23 36 12 14 15 22 7 18 -8 -4 -7
-1 4 8 10 8 15 19 12 25 -4 5 3 15 14 21 11 6 20 18 20 26 0 9 5 12 12 8 7 -5
8 -3 4 5 -5 7 0 19 10 27 11 9 13 12 6 9 -11 -6 -11 -3 0 14 7 12 16 21 21 21
4 0 5 5 2 10 -3 6 -1 10 6 10 7 0 9 3 6 7 -4 3 1 12 11 20 9 8 11 12 5 8 -7
-3 -13 -2 -13 3 0 6 7 12 15 16 8 3 14 11 13 18 -2 7 2 12 9 11 6 -1 10 5 9
15 -2 9 4 23 13 30 9 8 10 10 3 7 -11 -6 -11 -3 -1 13 7 12 17 19 21 16 4 -3
5 1 2 9 -3 8 2 21 10 30 9 9 16 22 16 31 0 8 4 17 10 21 5 3 7 12 3 21 -3 9 0
14 8 12 9 -2 14 6 13 24 0 15 5 26 10 25 6 -1 10 4 8 12 -2 8 2 17 8 21 6 4
12 17 13 29 1 14 6 20 16 16 11 -4 12 -3 1 10 -9 11 -9 15 -1 15 7 0 9 5 6 10
-3 6 -1 10 5 10 6 0 9 4 6 9 -8 12 4 42 13 36 4 -2 8 1 9 8 3 37 8 53 19 65 7
7 9 20 6 29 -5 12 -3 14 7 8 10 -6 12 -2 8 18 -3 15 -1 24 3 21 5 -3 9 4 9 15
0 12 5 21 12 21 6 0 8 3 5 7 -4 3 -1 13 6 21 10 13 9 14 -3 7 -10 -6 -10 -2 3
12 10 11 15 27 11 37 -4 11 -1 16 12 17 11 0 14 3 8 5 -17 7 -5 42 15 47 13 4
13 5 -2 6 -17 1 -17 2 -1 18 11 11 13 18 5 21 -7 2 -6 9 4 19 8 8 13 19 10 24
-4 5 -1 9 6 9 9 0 9 3 0 14 -9 11 -9 16 0 22 8 5 9 3 4 -6 -5 -8 -4 -11 3 -7
5 4 8 16 5 27 -3 12 0 20 8 20 7 0 9 3 6 6 -3 4 -2 16 4 27 9 15 8 18 -3 11
-10 -6 -11 -5 -2 7 6 8 10 22 8 32 -2 13 2 17 12 13 8 -3 12 -2 9 4 -8 13 6
91 15 85 5 -3 6 3 3 14 -3 10 0 22 6 25 7 5 7 15 1 31 -8 20 -6 25 6 25 8 0
12 5 9 10 -4 6 -1 18 7 27 11 14 11 16 -2 8 -12 -6 -13 -5 -2 6 6 7 12 17 12
22 0 4 -6 5 -12 2 -7 -4 -6 -1 2 7 8 7 15 27 15 43 0 17 4 33 9 37 6 4 4 14
-5 24 -9 11 -9 15 -1 10 11 -7 17 5 13 28 -1 4 4 14 10 22 6 8 7 14 2 14 -5 0
-10 7 -10 15 0 8 4 12 8 10 4 -3 10 2 13 11 3 8 2 12 -3 9 -5 -3 -12 -1 -16 5
-3 5 0 10 8 10 10 0 13 9 11 27 -1 15 2 33 8 40 7 9 7 13 -2 13 -10 0 -10 3
-1 14 9 10 9 16 1 21 -8 5 -7 11 1 22 7 8 13 27 14 42 1 15 5 33 10 40 6 10 4
12 -5 6 -10 -6 -11 -4 -6 11 17 40 18 55 6 69 -10 12 -9 16 1 20 10 4 14 23
14 61 -1 30 3 58 8 61 4 2 3 11 -3 18 -8 9 -8 15 0 20 6 3 7 12 3 18 -12 19
-12 37 -1 37 6 0 8 6 5 14 -3 8 -1 17 6 20 9 3 9 5 0 5 -7 1 -13 6 -13 12 0 5
4 8 8 5 5 -3 9 1 9 9 0 8 -7 15 -16 15 -11 0 -10 3 5 15 14 11 15 14 4 15 -13
0 -13 1 0 11 11 8 12 12 2 16 -6 2 -9 10 -6 15 11 18 10 238 -1 238 -5 0 -3 5
5 10 9 6 11 13 5 18 -12 9 -13 82 -1 82 5 0 1 9 -8 19 -11 12 -14 21 -7 26 6
3 11 11 11 16 0 6 -6 7 -12 3 -9 -5 -9 -2 1 9 11 14 11 20 0 34 -12 15 -12 16
1 8 13 -8 13 -7 1 8 -10 13 -10 17 -1 17 8 0 9 4 3 13 -6 6 -9 26 -8 42 2 17
-2 38 -7 48 -6 12 -5 17 4 17 9 0 9 3 1 11 -6 6 -9 18 -6 27 4 9 2 13 -3 9 -6
-3 -10 8 -10 26 1 30 -1 32 -31 31 -18 0 -30 3 -27 8 3 4 -4 8 -16 8 -12 0
-31 5 -42 11 -14 7 -18 8 -14 0 4 -5 -5 -4 -20 4 -15 7 -33 11 -40 8 -8 -3
-17 3 -20 12 -5 13 -9 14 -15 4 -6 -11 -9 -10 -14 4 -6 13 -11 14 -26 7 -15
-8 -17 -7 -13 5 5 11 2 14 -10 9 -11 -4 -23 1 -32 12 -9 11 -12 12 -8 4 5 -12
4 -12 -6 -3 -7 6 -19 9 -28 6 -9 -4 -13 -2 -9 4 4 6 0 14 -9 17 -8 3 -12 2 -9
-4 3 -6 1 -10 -4 -10 -6 0 -11 7 -11 16 0 14 -2 15 -17 3 -11 -10 -14 -10 -9
-1 5 8 0 12 -13 12 -12 0 -21 4 -21 10 0 5 -3 9 -7 9 -26 -4 -43 2 -37 14 5 7
0 6 -11 -3 -11 -9 -16 -10 -11 -2 6 11 -5 17 -26 13 -5 0 -8 4 -8 11 0 6 -3 8
-7 5 -3 -4 -12 1 -20 11 -8 9 -12 11 -8 5 3 -7 1 -13 -4 -13 -6 0 -11 4 -11
10 0 5 -6 9 -12 7 -7 -1 -12 4 -10 11 2 10 -2 10 -20 1 -13 -6 -20 -8 -16 -4
10 10 -29 38 -41 31 -5 -4 -11 -1 -13 4 -2 6 -12 13 -23 14 -11 2 -19 9 -17
17 2 9 -1 9 -14 -2 -10 -8 -15 -9 -12 -4 3 6 0 16 -8 23 -11 10 -14 10 -14 0
-1 -7 -7 -2 -14 11 -10 18 -15 20 -19 10 -4 -10 -6 -10 -6 -1 -1 6 -8 12 -16
12 -8 0 -15 5 -15 10 0 6 -7 10 -16 10 -8 0 -13 4 -9 9 3 6 -4 8 -15 6 -11 -2
-18 0 -15 5 3 5 -4 11 -15 15 -11 3 -20 11 -20 16 0 5 -7 9 -15 9 -8 0 -15 5
-15 10 0 6 -5 10 -11 10 -7 0 -20 9 -30 21 -10 11 -23 18 -28 14 -6 -3 -11 -2
-11 4 0 13 -48 61 -60 61 -6 0 -15 9 -22 20 -7 11 -18 20 -25 20 -7 0 -13 7
-13 15 0 8 -6 14 -12 12 -7 -1 -12 5 -10 15 2 12 -3 15 -19 11 -15 -4 -20 -3
-15 5 4 7 2 12 -4 12 -6 0 -9 4 -5 9 3 5 -4 12 -15 16 -11 3 -20 11 -20 16 0
13 -43 55 -53 51 -5 -1 -6 2 -2 7 9 15 -17 50 -32 44 -9 -4 -11 0 -7 10 3 10
-4 26 -19 41 -15 15 -21 28 -16 35 5 6 6 9 3 7 -9 -7 -33 17 -27 27 2 4 -1 7
-8 7 -7 0 -10 3 -6 6 3 4 -1 13 -9 21 -8 9 -13 21 -10 28 3 8 -2 16 -10 19 -9
3 -12 10 -9 16 3 5 1 10 -5 10 -6 0 -9 4 -5 9 3 5 1 12 -5 16 -6 4 -7 11 -4
17 5 7 2 9 -8 6 -11 -5 -14 1 -13 23 1 18 -3 29 -11 29 -7 0 -11 6 -8 14 3 8
0 17 -6 21 -8 5 -8 11 1 21 10 12 9 13 -5 8 -12 -5 -15 -2 -9 12 5 13 3 15 -7
9 -10 -6 -12 -4 -7 7 3 9 0 24 -7 34 -7 11 -13 30 -14 44 0 14 -6 26 -12 28
-7 3 -7 8 1 19 10 11 10 14 -2 11 -8 -2 -13 4 -11 13 1 9 -4 22 -12 28 -8 6
-12 20 -9 30 3 10 0 22 -6 25 -15 10 -14 29 2 21 6 -4 5 -1 -3 7 -9 7 -14 21
-12 31 2 9 -2 17 -8 17 -7 0 -10 8 -7 20 3 11 1 20 -3 20 -4 0 -6 9 -3 20 3
12 0 20 -8 20 -7 0 -9 3 -6 7 4 3 1 13 -6 21 -10 13 -9 14 1 8 11 -7 12 -4 3
11 -6 11 -7 23 -4 27 3 3 -2 6 -13 6 -18 1 -18 1 -1 11 17 10 17 12 2 29 -9
10 -14 24 -10 29 3 6 2 11 -2 11 -5 0 -10 14 -11 32 -2 17 -8 38 -14 46 -9 10
-8 16 3 23 8 5 9 9 3 9 -7 0 -14 14 -16 30 -3 17 0 30 6 30 5 0 1 7 -10 15
-17 13 -17 14 -1 15 26 0 31 1 51 12 12 7 16 7 12 0 -4 -6 2 -8 14 -5 11 3 17
10 13 16 -4 6 0 8 10 4 10 -3 17 -2 17 3 0 6 3 9 8 8 12 -4 62 44 56 54 -3 5
0 7 8 6 8 -2 12 4 10 16 -2 10 1 15 6 12 12 -7 25 41 16 56 -5 7 -2 8 6 3 10
-6 12 -4 7 7 -3 9 0 21 6 27 8 8 8 11 -1 11 -9 0 -10 5 -3 19 8 14 7 22 -4 31
-7 6 -11 18 -8 26 3 8 0 14 -6 14 -6 0 -11 9 -11 20 0 11 -4 20 -10 20 -5 0
-10 6 -10 13 0 19 -33 47 -54 47 -9 0 -14 5 -11 10 6 10 -15 14 -44 11 -7 -2
-11 2 -8 6 3 5 -3 10 -14 10 -13 1 -17 -2 -12 -10 5 -9 3 -9 -8 -1 -19 16
-291 16 -301 0 -6 -8 -8 -8 -8 0 0 7 -27 12 -75 12 -56 0 -73 -2 -68 -11 5 -9
3 -9 -8 -1 -8 7 -27 12 -44 12 -16 0 -36 -5 -44 -12 -10 -8 -13 -8 -8 0 5 8
-48 11 -188 12 -141 0 -195 -3 -195 -11 0 -9 -3 -8 -8 0 -5 7 -24 11 -45 10
-20 -2 -39 1 -41 7 -3 7 -9 5 -15 -4 -9 -13 -11 -12 -11 4 0 15 -3 16 -15 6
-11 -9 -15 -9 -15 -1 0 7 -4 9 -10 6 -5 -3 -10 -1 -10 5 0 6 -4 8 -10 5 -5 -3
-10 -1 -10 4 0 6 -9 11 -20 11 -11 0 -20 5 -20 10 0 6 -7 10 -15 10 -8 0 -15
3 -15 8 0 4 -14 13 -31 21 -17 7 -34 22 -38 33 -4 11 -11 19 -16 17 -6 -1 -16
9 -22 22 -7 13 -13 20 -13 16 0 -11 -30 19 -30 30 0 5 -9 15 -19 23 -11 7 -18
17 -15 22 3 4 0 8 -7 8 -7 0 -9 3 -6 6 4 4 -3 15 -14 25 -11 9 -20 20 -20 23
3 26 -1 36 -11 30 -7 -5 -9 0 -6 14 3 12 2 22 -4 24 -5 2 -11 22 -13 45 -1 23
-6 46 -10 52 -3 6 -3 11 2 11 4 0 8 20 7 45 0 25 3 45 8 45 5 0 6 5 3 10 -3 6
-2 10 4 10 5 0 8 9 6 21 -3 15 0 19 11 15 8 -3 13 -2 9 3 -7 13 5 42 16 35 5
-3 7 1 4 8 -3 7 8 29 25 48 17 19 28 41 25 47 -2 7 -1 12 3 10 4 -1 7 1 7 4 0
3 8 13 18 23 9 10 15 22 12 27 -4 5 -1 9 5 9 6 0 8 5 4 12 -5 7 -2 9 9 5 12
-4 14 -2 10 10 -3 8 0 19 8 24 12 7 12 9 -1 9 -12 1 -11 3 3 11 9 6 15 14 12
20 -4 5 0 12 9 15 8 3 12 12 9 20 -3 8 1 14 8 14 11 0 11 3 -1 10 -11 7 -11
10 -2 10 7 0 11 4 7 9 -3 5 2 17 11 25 8 9 11 16 6 16 -5 0 -9 7 -9 15 0 8 5
11 10 8 6 -4 8 0 4 10 -3 9 -2 19 3 22 5 3 7 16 4 30 -2 13 0 27 6 30 5 3 10
11 10 16 0 6 -5 7 -10 4 -13 -8 -8 17 5 28 6 4 5 10 -4 16 -12 8 -12 12 -2 25
8 9 9 16 4 16 -7 0 -13 22 -16 68 0 6 -4 12 -8 12 -4 0 -6 9 -4 20 2 13 -2 20
-11 20 -9 0 -14 10 -14 29 0 21 -6 32 -19 36 -12 4 -18 12 -14 21 3 8 -1 14
-11 14 -9 0 -16 6 -16 14 0 18 -59 68 -71 60 -5 -3 -9 2 -9 10 0 14 -12 20
-32 17 -5 0 -8 4 -8 10 0 5 -4 7 -10 4 -5 -3 -10 1 -10 10 0 9 -4 13 -10 10
-5 -3 -10 -2 -10 4 0 5 -11 8 -25 7 -13 -2 -23 2 -22 8 1 6 -8 10 -20 10 -13
-1 -20 2 -18 6 6 10 -25 18 -45 12z m265 -142 c10 -11 16 -20 13 -20 -3 0 -13
9 -23 20 -10 11 -16 20 -13 20 3 0 13 -9 23 -20z m1466 -1607 c13 -16 12 -17
-3 -4 -10 7 -18 15 -18 17 0 8 8 3 21 -13z m2958 -6399 c6 4 19 2 29 -3 13 -7
22 -7 30 1 7 7 12 8 12 2 0 -5 14 -11 31 -12 44 -3 53 -6 61 -17 5 -6 8 -4 8
5 0 13 2 13 9 1 5 -8 17 -15 28 -17 36 -5 63 -16 57 -25 -3 -5 1 -9 8 -9 17
-1 68 -46 68 -60 0 -6 4 -9 9 -5 6 3 8 -3 6 -15 -2 -11 1 -19 7 -17 6 1 13 -4
16 -12 3 -10 0 -11 -9 -5 -11 6 -12 5 -3 -7 14 -19 12 -73 -5 -92 -7 -9 -9
-22 -5 -29 4 -7 4 -10 -1 -6 -5 5 -17 -6 -27 -23 -11 -17 -22 -29 -25 -25 -3
3 -13 -2 -22 -12 -16 -17 -33 -24 -61 -25 -8 0 -21 -7 -28 -16 -8 -9 -11 -10
-7 -3 7 15 -11 16 -20 2 -5 -8 -11 -7 -21 1 -11 9 -14 8 -15 -2 0 -11 -2 -11
-6 -1 -4 10 -8 10 -19 1 -10 -8 -17 -7 -29 5 -20 19 -29 21 -19 4 6 -10 4 -10
-8 0 -8 7 -24 9 -33 5 -13 -4 -16 -3 -11 5 4 7 1 12 -8 12 -9 0 -16 5 -16 11
0 5 -5 7 -10 4 -6 -3 -13 1 -16 9 -3 9 -15 16 -27 16 -11 0 -17 3 -14 6 4 4
-2 15 -14 25 -14 12 -16 18 -7 22 8 4 7 6 -4 6 -10 1 -18 6 -18 12 0 5 6 7 13
3 7 -5 6 0 -3 10 -16 21 -22 73 -9 81 4 3 6 14 4 25 -2 11 0 20 5 20 5 0 7 11
4 25 -3 17 1 27 11 31 8 3 13 10 10 14 -3 5 2 13 11 18 9 5 16 12 15 15 -1 15
12 37 19 32 4 -3 11 3 14 12 6 14 9 15 15 4 5 -7 14 -11 20 -7z m-9734 -4 c-3
-5 -2 -10 4 -10 5 0 13 5 17 11 4 8 9 7 15 -2 5 -8 9 -9 9 -3 0 5 20 10 45 10
24 1 42 -3 39 -8 -3 -4 2 -11 10 -14 9 -3 16 -12 16 -20 0 -8 5 -14 11 -14 5
0 8 -4 4 -9 -3 -6 3 -14 12 -20 10 -6 12 -11 6 -11 -18 0 -16 -20 1 -20 10 0
13 -8 10 -26 -3 -14 -1 -23 4 -20 10 6 8 -73 -3 -122 -4 -18 -17 -39 -29 -47
-11 -8 -16 -15 -11 -15 5 0 -1 -7 -13 -16 -12 -8 -26 -12 -32 -9 -5 3 -7 0 -5
-7 4 -9 -4 -14 -22 -16 -15 -1 -30 -6 -33 -12 -3 -5 -20 -10 -38 -12 -18 -1
-32 -7 -32 -13 0 -5 -4 -4 -9 3 -4 8 -12 14 -16 14 -4 0 -12 -6 -16 -14 -7
-11 -9 -11 -9 1 0 11 -3 11 -17 0 -11 -10 -14 -10 -9 -1 5 8 -1 12 -21 12 -15
0 -35 4 -43 10 -9 6 -17 5 -22 -3 -5 -8 -8 -6 -8 6 0 10 -4 15 -10 12 -6 -3
-10 1 -10 10 0 9 -4 14 -8 11 -5 -3 -19 8 -31 25 -12 16 -27 27 -33 23 -6 -4
-8 -3 -5 4 10 14 -3 43 -15 36 -6 -4 -5 3 1 15 9 16 9 21 -1 21 -10 0 -10 2 1
9 9 6 10 11 3 15 -6 4 -9 13 -6 21 4 8 10 13 14 10 5 -3 6 4 3 15 -3 12 0 20
8 20 7 0 9 3 6 6 -4 4 3 15 15 25 11 11 17 19 12 20 -5 0 2 5 15 10 16 6 21
14 17 25 -5 14 -4 15 8 5 10 -9 16 -9 21 -1 4 6 13 9 21 6 8 -3 13 0 11 6 -1
7 8 13 20 14 13 1 28 5 35 11 7 5 27 10 43 12 17 1 34 7 40 12 12 12 18 11 10
-1z m1739 -122 c-3 -4 1 -8 8 -8 9 0 9 -3 -2 -10 -13 -9 -8 -14 12 -11 3 0 6
-14 6 -32 -1 -17 2 -40 7 -50 4 -10 5 -21 1 -24 -3 -3 2 -12 12 -20 16 -12 15
-13 -3 -6 -11 3 -18 4 -15 2 3 -2 23 -20 44 -39 22 -19 35 -28 31 -20 -6 12
-5 13 6 3 7 -7 21 -13 31 -13 10 0 18 -4 18 -9 0 -5 8 -8 18 -6 9 1 25 -5 35
-13 16 -15 17 -14 11 3 -6 14 -4 16 7 9 8 -5 17 -9 22 -10 4 -1 8 -2 10 -4 8
-7 57 -4 57 4 0 6 5 5 12 -2 7 -7 17 -8 30 -1 12 7 18 6 18 -1 0 -6 5 -8 10
-5 6 4 8 9 6 13 -2 4 29 7 70 7 41 -1 74 3 74 8 0 5 11 7 25 5 14 -3 25 -2 25
2 0 4 10 6 23 5 12 -1 28 2 35 8 8 6 12 5 12 -4 0 -12 2 -12 9 0 5 7 14 10 20
7 6 -4 11 -2 11 4 0 6 12 8 29 5 17 -3 33 0 36 5 4 6 11 8 16 5 5 -4 9 -3 9 2
0 4 18 8 40 7 21 0 37 3 34 8 -3 4 0 8 5 8 6 0 11 -6 11 -12 0 -10 2 -10 9 0
5 8 30 14 64 15 30 1 55 4 55 7 -1 19 4 23 12 10 5 -8 10 -10 10 -3 0 6 8 9
19 6 10 -3 22 0 25 6 5 8 13 8 28 0 15 -8 19 -8 14 0 -5 7 5 11 29 11 26 0 34
3 29 13 -6 9 -4 9 8 -1 10 -8 19 -9 22 -3 7 11 25 9 45 -3 10 -6 12 -5 7 2 -7
11 13 17 38 13 5 -1 13 4 17 11 7 10 9 10 9 -2 0 -13 1 -13 10 0 9 13 10 13
10 0 0 -13 1 -13 10 0 6 10 10 11 10 3 0 -7 6 -13 13 -13 13 0 53 -41 50 -51
-1 -4 11 -12 27 -19 17 -7 30 -16 30 -21 0 -5 6 -9 14 -9 8 0 16 -6 19 -12 7
-20 -3 -37 -19 -31 -8 3 -14 0 -14 -6 0 -6 -9 -11 -21 -11 -11 0 -18 -4 -14
-9 3 -6 -4 -8 -15 -6 -11 2 -25 -2 -32 -9 -7 -7 -19 -11 -26 -8 -6 2 -12 -5
-12 -15 0 -14 -2 -15 -9 -4 -6 9 -11 10 -15 3 -4 -6 -13 -9 -21 -5 -10 3 -13
1 -10 -9 4 -11 -2 -14 -25 -12 -23 2 -28 -1 -21 -10 8 -10 3 -11 -21 -8 -23 4
-29 2 -23 -8 5 -9 4 -11 -4 -6 -6 4 -17 3 -24 -2 -7 -5 -22 -8 -34 -7 -16 1
-20 -2 -13 -10 7 -9 2 -11 -20 -10 -17 1 -30 -2 -30 -6 0 -5 -7 -5 -17 -2 -10
4 -14 2 -10 -4 5 -7 -1 -9 -15 -5 -13 3 -19 1 -15 -5 4 -6 -1 -14 -10 -17 -9
-4 -20 -1 -25 6 -6 10 -8 10 -8 1 0 -7 -7 -10 -17 -6 -11 4 -14 3 -9 -6 6 -9
2 -12 -10 -11 -33 4 -45 0 -39 -10 3 -5 1 -10 -4 -10 -6 0 -11 6 -11 13 0 6
-5 4 -11 -6 -7 -11 -18 -16 -35 -13 -13 3 -24 0 -24 -5 0 -6 -4 -8 -9 -4 -5 3
-13 1 -16 -5 -4 -6 -15 -8 -26 -5 -13 5 -19 2 -19 -10 0 -9 -5 -13 -10 -10 -6
4 -7 11 -4 17 4 6 -3 4 -15 -5 -13 -8 -30 -13 -38 -10 -8 3 -20 -3 -28 -13
-12 -15 -16 -16 -24 -5 -6 10 -10 10 -16 1 -4 -6 -13 -9 -20 -6 -7 2 -16 -3
-20 -12 -6 -15 -8 -15 -21 2 -10 15 -14 16 -14 5 0 -9 -10 -15 -22 -16 -13 0
-32 -4 -42 -8 -15 -7 -17 -5 -11 6 7 11 6 12 -7 2 -8 -7 -18 -10 -21 -6 -4 3
-7 1 -7 -5 0 -6 -7 -9 -17 -5 -12 5 -14 3 -8 -8 7 -11 5 -11 -10 1 -17 14 -18
13 -12 -3 4 -10 3 -16 -2 -12 -16 9 -71 13 -77 4 -2 -4 -12 -5 -21 -2 -12 5
-14 3 -8 -7 5 -9 4 -11 -3 -6 -18 11 -53 16 -47 7 8 -14 -26 -23 -40 -11 -10
8 -15 8 -20 -1 -6 -8 -10 -7 -16 2 -7 11 -9 9 -9 -6 0 -12 -3 -16 -8 -9 -4 6
-16 14 -26 17 -16 6 -17 5 -7 -7 11 -13 8 -14 -18 -6 -26 7 -31 6 -32 -8 -1
-14 -2 -13 -6 2 -4 15 -7 16 -15 5 -8 -11 -11 -11 -15 -1 -4 10 -9 9 -20 -5
-8 -10 -12 -13 -9 -7 4 8 -11 11 -43 10 -27 0 -47 -4 -44 -9 6 -11 -21 -4 -29
7 -4 6 -12 5 -21 -3 -12 -9 -16 -9 -19 1 -4 10 -8 10 -21 -1 -11 -8 -17 -9
-17 -3 0 6 -6 9 -14 6 -8 -3 -24 0 -36 6 -15 8 -20 8 -16 1 5 -7 -1 -11 -14
-11 -14 0 -19 4 -14 13 6 9 5 9 -7 0 -8 -6 -28 -9 -44 -7 -17 3 -40 6 -52 6
-13 0 -23 5 -23 10 0 7 -5 6 -14 -1 -10 -8 -16 -8 -25 3 -7 8 -21 12 -33 8
-16 -4 -19 -2 -13 9 6 11 5 12 -5 2 -10 -9 -17 -10 -27 -2 -10 9 -13 8 -13 -2
-1 -10 -4 -8 -11 4 -8 13 -14 15 -29 7 -15 -8 -18 -7 -15 2 4 9 -7 14 -31 15
-21 1 -40 6 -43 11 -3 5 -14 8 -23 6 -10 -1 -18 2 -18 8 0 6 -7 7 -16 4 -8 -3
-12 -2 -9 4 6 10 -3 13 -37 13 -10 0 -16 3 -13 7 2 3 -12 12 -31 19 -18 7 -34
17 -34 22 0 5 -7 9 -15 9 -8 0 -15 5 -15 10 0 6 -5 10 -11 10 -6 0 -17 6 -24
13 -34 30 -43 35 -49 30 -3 -4 -6 1 -6 9 0 9 -15 25 -32 37 -18 11 -27 21 -19
21 9 0 7 6 -7 19 -12 10 -22 23 -22 29 0 5 -7 12 -15 16 -8 3 -15 11 -15 18 0
9 3 8 10 -2 5 -8 10 -10 10 -4 0 6 -12 24 -26 39 -15 16 -19 25 -10 22 9 -4
16 -2 16 3 0 6 -5 10 -11 10 -5 0 -7 5 -4 10 5 8 12 7 23 -2 12 -10 14 -10 8
0 -4 6 -2 12 3 12 6 0 11 -4 11 -9 0 -5 9 -11 20 -14 11 -3 20 0 20 6 0 6 7 2
15 -9 15 -19 15 -19 9 1 -6 20 -5 20 10 1 12 -15 16 -16 17 -5 0 10 2 10 6 2
2 -7 9 -13 14 -13 6 0 7 5 3 11 -4 8 -1 8 13 1 22 -12 152 -11 172 2 8 5 16 4
22 -5 7 -11 11 -10 24 6 9 11 13 14 9 6 -6 -11 -3 -13 12 -6 10 4 31 8 46 8
15 0 26 2 24 6 -5 7 3 8 71 13 17 2 29 6 26 10 -4 8 10 11 39 9 9 -1 19 3 23
9 3 6 11 8 16 5 5 -4 9 -2 9 4 0 6 7 8 15 5 9 -4 15 0 15 7 0 11 3 11 10 -1 7
-12 10 -12 10 -1 0 7 6 11 15 7 8 -3 15 -1 15 5 0 6 5 7 10 4 6 -3 10 -1 10 6
0 8 5 7 17 -2 11 -10 14 -10 9 -1 -5 8 0 12 13 12 12 0 21 5 21 10 0 6 5 10
11 10 5 0 7 -5 3 -12 -4 -6 3 -4 15 5 13 8 30 13 39 10 8 -4 13 -2 9 3 -3 6 3
11 14 11 15 1 19 -3 14 -18 -4 -12 -2 -19 6 -19 10 0 10 -3 2 -11 -6 -6 -9
-18 -6 -27 4 -10 2 -13 -5 -8 -8 4 -10 -3 -7 -24 2 -16 -1 -30 -6 -30 -5 0 -9
-9 -9 -21 0 -11 -4 -17 -10 -14 -5 3 -10 1 -10 -5 0 -7 -9 -23 -20 -37 -11
-14 -20 -22 -20 -17 0 5 -16 -8 -35 -29 -19 -21 -35 -35 -35 -31 0 3 -7 0 -16
-7 -18 -14 -20 -15 -72 -17 -24 -2 -31 -6 -26 -14 6 -10 4 -10 -8 0 -12 9 -18
10 -23 2 -5 -8 -13 -6 -25 5 -14 12 -20 13 -26 4 -5 -8 -3 -10 6 -4 9 5 11 4
6 -4 -6 -8 -12 -9 -20 -2 -9 7 -16 7 -24 -1 -9 -9 -12 -9 -12 0 0 10 -3 10
-14 0 -8 -7 -12 -16 -9 -20 2 -5 -3 -8 -11 -8 -10 0 -16 -9 -16 -26 0 -17 4
-23 13 -18 7 5 7 2 -2 -10 -8 -9 -10 -16 -5 -15 16 5 54 -12 54 -24 0 -7 4 -6
10 3 7 11 10 11 10 2 0 -9 5 -10 19 -2 14 7 22 7 26 0 4 -6 12 -7 18 -3 7 4
18 9 25 10 6 2 18 4 25 6 6 1 18 7 26 11 10 6 12 5 7 -2 -5 -8 -2 -10 8 -6 9
3 14 10 11 14 -3 5 6 7 21 5 19 -2 24 1 19 14 -3 8 -3 12 1 8 11 -10 80 33 94
58 8 15 18 21 28 18 12 -5 14 -1 10 15 -4 12 -1 20 5 19 5 -1 17 12 26 28 9
17 18 32 21 35 15 15 27 70 18 76 -7 5 -4 12 7 21 13 9 14 13 5 13 -9 0 -8 4
5 13 14 11 15 16 5 22 -9 6 -11 4 -5 -6 5 -8 4 -10 0 -6 -12 10 -16 39 -5 32
4 -3 6 4 3 15 -3 11 -10 17 -17 13 -6 -4 -5 0 2 9 10 13 10 17 0 21 -8 4 -7 6
5 6 9 1 17 6 17 12 0 5 5 7 10 4 6 -3 10 -1 10 5 0 7 7 10 15 6 8 -3 15 -1 15
5 0 6 5 7 10 4 6 -3 10 -2 10 2 0 5 11 9 24 9 14 0 22 -4 20 -8z m6569 -1 c-4
-6 0 -8 10 -4 10 3 17 2 17 -4 0 -6 5 -7 11 -3 6 3 15 1 19 -5 4 -7 21 -13 38
-13 17 -1 29 -5 26 -10 -3 -4 6 -8 20 -8 14 0 26 -4 26 -9 0 -5 13 -8 29 -7
16 1 29 -2 28 -7 -2 -10 22 -17 60 -19 13 0 20 -5 17 -10 -4 -5 4 -8 17 -6 16
2 23 -2 21 -10 -2 -10 2 -10 17 -2 13 7 22 7 26 0 4 -6 11 -8 16 -5 5 4 12 -1
15 -10 6 -13 8 -14 15 -3 7 11 9 11 9 -1 0 -7 6 -11 14 -8 7 3 24 -2 37 -10
13 -10 19 -11 14 -4 -6 10 -3 11 12 2 11 -6 24 -7 28 -3 5 4 5 -2 1 -12 -6
-16 -4 -17 10 -6 13 11 19 11 36 1 16 -10 19 -10 12 1 -6 10 -4 10 9 -1 9 -7
26 -11 36 -8 15 3 18 1 14 -11 -5 -11 -3 -13 8 -6 19 11 39 14 39 5 0 -4 26
-8 58 -8 98 -1 112 -3 112 -14 0 -5 -5 -7 -12 -3 -8 5 -9 0 -6 -14 4 -12 2
-20 -3 -16 -8 5 -13 -10 -10 -30 1 -5 -4 -6 -12 -3 -10 4 -13 -2 -11 -20 1
-14 0 -22 -3 -19 -3 3 -19 -13 -35 -35 -16 -22 -33 -37 -38 -34 -6 3 -10 2
-10 -4 0 -5 -9 -13 -21 -16 -11 -4 -18 -9 -15 -12 7 -7 -17 -32 -26 -26 -5 2
-8 -1 -8 -8 0 -7 -3 -10 -6 -6 -4 3 -15 -4 -25 -16 -18 -21 -19 -21 -14 -2 5
16 4 16 -6 -2 -9 -16 -19 -22 -35 -19 -16 3 -21 1 -17 -9 3 -10 -1 -13 -16
-10 -12 2 -21 0 -21 -5 0 -5 -14 -11 -30 -15 -17 -4 -28 -10 -25 -15 7 -11
-29 -7 -37 5 -4 6 -8 1 -8 -9 0 -11 -3 -16 -7 -13 -3 4 -12 2 -20 -4 -7 -6
-13 -8 -13 -5 0 4 -8 2 -18 -3 -13 -7 -23 -6 -31 2 -10 9 -12 9 -9 -2 2 -8 -6
-14 -19 -16 -13 -1 -23 2 -23 7 0 5 -5 6 -10 3 -6 -4 -8 -10 -6 -14 3 -4 -1
-8 -9 -8 -8 0 -11 5 -8 11 4 6 -1 5 -10 -3 -9 -7 -17 -10 -17 -5 0 5 -5 2 -10
-6 -8 -12 -10 -12 -10 -1 0 11 -3 11 -17 0 -12 -10 -17 -11 -20 -2 -2 7 -11 9
-19 6 -7 -3 -12 -9 -9 -13 6 -10 -15 -8 -32 3 -9 6 -13 2 -13 -10 0 -13 -2
-15 -9 -5 -5 9 -17 11 -34 6 -19 -4 -27 -2 -27 7 0 11 -3 11 -10 -1 -5 -8 -10
-11 -10 -6 0 5 -6 3 -14 -3 -10 -9 -16 -9 -21 -1 -5 8 -11 8 -21 -1 -10 -8
-14 -8 -14 0 0 7 -8 8 -24 1 -17 -6 -26 -5 -28 2 -3 8 -10 8 -25 -1 -14 -7
-24 -8 -28 -1 -3 5 -13 10 -21 10 -8 0 -12 -4 -9 -10 8 -13 -28 0 -37 14 -6 8
-8 8 -8 0 0 -6 -7 -11 -15 -11 -8 0 -15 3 -15 6 0 3 -20 5 -45 4 -25 -1 -45 3
-45 8 0 6 -6 7 -12 2 -18 -10 -38 -13 -38 -4 0 4 -7 8 -15 8 -8 0 -15 -4 -15
-9 0 -5 -8 -2 -17 8 -10 10 -19 12 -21 6 -2 -6 -10 -8 -18 -5 -7 3 -11 10 -7
17 4 6 -1 5 -10 -3 -14 -11 -17 -11 -17 0 0 12 -2 12 -9 0 -6 -9 -11 -10 -15
-3 -4 6 -13 9 -21 5 -9 -3 -15 1 -15 8 0 11 -2 11 -9 0 -8 -12 -12 -13 -25 -1
-9 7 -19 10 -23 6 -3 -3 -14 1 -24 10 -11 10 -19 12 -24 5 -3 -6 -11 -11 -16
-11 -6 0 -7 5 -3 11 4 8 0 8 -15 0 -12 -7 -21 -8 -20 -4 3 20 -2 27 -11 13 -7
-11 -10 -11 -10 -2 0 7 -5 10 -10 7 -6 -4 -18 -1 -27 7 -12 9 -15 9 -9 1 4 -7
2 -13 -3 -13 -6 0 -11 5 -11 11 0 5 -4 7 -10 4 -5 -3 -10 0 -10 7 0 9 -3 9
-10 -2 -7 -11 -10 -11 -10 -2 0 7 -4 11 -9 7 -5 -3 -12 -1 -16 5 -3 6 -17 8
-31 6 -13 -3 -24 0 -24 6 0 5 -7 8 -15 5 -8 -4 -17 -2 -20 4 -4 5 -10 7 -15 4
-5 -3 -11 -1 -15 5 -4 7 -13 7 -26 0 -15 -8 -19 -8 -17 2 2 9 -10 13 -40 13
-38 0 -41 1 -25 13 16 12 15 13 -9 8 -18 -3 -28 0 -28 7 0 7 -4 6 -10 -3 -6
-10 -10 -11 -10 -2 0 6 -7 12 -15 12 -8 0 -15 6 -16 13 0 9 -2 9 -6 -1 -4 -10
-8 -10 -19 -1 -8 6 -14 8 -14 4 0 -4 -7 -2 -15 5 -8 6 -18 9 -24 6 -5 -3 -12
1 -15 10 -4 11 -15 14 -36 10 -16 -2 -33 1 -36 6 -5 7 -2 8 6 3 8 -5 11 -4 6
3 -4 6 -13 9 -20 6 -8 -3 -17 -1 -21 5 -3 6 -15 11 -25 11 -10 0 -26 7 -34 16
-12 12 -16 12 -16 2 0 -9 -3 -9 -8 -2 -4 6 -15 10 -24 8 -10 -1 -21 3 -25 8
-4 7 -1 8 8 3 8 -5 11 -4 6 1 -5 5 -18 9 -30 9 -12 1 -21 6 -20 12 1 6 -5 10
-15 8 -9 -1 -23 3 -31 9 -7 6 -19 11 -25 12 -27 3 -55 17 -60 31 -3 8 -1 11 4
8 6 -3 10 1 10 10 0 9 4 14 9 10 5 -3 16 4 24 15 7 11 16 18 19 15 3 -3 13 4
23 15 10 11 24 20 30 20 7 0 15 7 19 15 3 8 13 15 22 15 10 0 14 5 10 15 -3 9
0 15 10 15 8 0 12 4 9 10 -4 6 1 7 10 3 10 -3 21 0 26 8 6 10 9 10 9 2 0 -8
14 -13 38 -13 21 0 44 -6 51 -12 11 -11 12 -10 6 2 -8 13 -7 13 9 1 15 -13 19
-13 27 0 5 8 9 9 9 3 0 -7 9 -14 20 -17 11 -3 20 0 20 5 0 7 5 6 13 -1 8 -6
17 -8 20 -4 4 3 7 1 7 -5 0 -7 5 -12 11 -12 5 0 8 4 5 8 -3 5 1 9 9 9 8 0 11
-5 8 -10 -3 -5 0 -7 8 -5 8 3 22 1 32 -4 12 -6 17 -5 18 4 0 7 4 4 9 -7 5 -11
9 -15 9 -9 1 11 29 12 47 1 6 -3 30 -8 52 -9 23 -2 42 -6 42 -10 0 -4 7 -5 15
-2 8 4 15 2 15 -3 0 -5 14 -8 30 -5 21 3 30 0 30 -9 0 -11 2 -11 10 1 6 9 10
11 10 3 0 -7 6 -10 14 -7 8 3 17 1 20 -4 3 -6 15 -8 26 -5 13 3 20 0 20 -8 0
-11 2 -11 10 1 5 8 10 10 10 3 0 -6 13 -10 30 -9 17 1 30 -1 30 -6 0 -4 5 -8
11 -8 5 0 7 4 4 10 -3 6 1 7 9 4 9 -3 13 -11 9 -18 -4 -6 1 -5 10 3 9 7 17 9
17 3 0 -5 13 -9 30 -8 16 1 32 -4 34 -10 5 -13 35 -12 56 1 6 3 10 1 10 -6 0
-6 8 -9 20 -6 11 3 20 0 21 -6 0 -8 2 -9 5 -1 3 6 16 9 29 6 15 -2 22 -9 18
-16 -3 -6 0 -6 8 2 15 13 33 17 25 4 -6 -10 70 -8 103 3 15 4 21 4 17 -3 -7
-12 20 -10 31 3 4 4 2 5 -6 0 -10 -6 -12 -4 -7 4 6 9 11 9 22 0 10 -8 14 -8
14 -1 0 6 7 9 15 5 9 -3 25 3 37 13 12 11 18 13 14 7 -10 -18 10 -16 28 3 12
12 16 12 17 2 0 -10 2 -10 6 0 8 20 33 14 33 -8 0 -11 6 -20 13 -21 9 0 9 -2
0 -6 -8 -3 -4 -13 12 -29 29 -29 33 -42 8 -24 -10 7 -3 -1 14 -17 18 -17 30
-33 26 -37 -3 -3 1 -6 10 -6 10 0 17 -7 17 -15 0 -14 12 -19 33 -16 4 0 7 -6
7 -15 0 -8 5 -12 10 -9 6 3 10 1 10 -5 0 -6 5 -8 10 -5 6 3 10 2 10 -4 0 -5
16 -15 34 -22 20 -7 32 -17 29 -23 -4 -6 0 -5 9 2 9 7 18 9 20 3 1 -5 17 -11
35 -14 17 -3 36 -8 42 -11 5 -4 13 -2 16 4 5 8 11 7 21 -1 8 -7 14 -7 14 -1 0
15 28 23 36 10 5 -7 2 -8 -6 -3 -9 6 -11 4 -5 -4 6 -10 10 -10 19 0 6 7 18 19
26 27 8 7 9 11 3 7 -7 -3 -13 -1 -13 4 0 6 6 11 14 11 9 0 12 8 8 26 -3 16 -9
23 -18 20 -8 -3 -13 -2 -11 2 1 4 0 8 -3 9 -3 1 -17 6 -32 12 -20 7 -28 7 -28
0 0 -6 -7 -3 -16 5 -17 18 -28 21 -19 7 3 -5 1 -12 -5 -16 -5 -3 -10 -2 -10 2
0 5 -11 10 -26 11 -17 1 -23 -2 -19 -11 4 -6 1 -5 -7 4 -7 9 -18 14 -24 12 -6
-2 -23 3 -39 11 -16 8 -33 12 -38 9 -6 -3 -7 -1 -3 5 4 7 2 12 -4 12 -14 0
-76 60 -72 71 1 5 -4 8 -10 7 -7 -2 -12 5 -12 14 1 10 -3 16 -10 15 -6 -1 -10
6 -8 17 3 14 -1 17 -15 12 -14 -6 -15 -5 -6 5 10 10 9 17 -5 33 -9 11 -11 16
-4 12 17 -10 15 9 -3 24 -11 9 -12 16 -5 25 6 7 8 19 4 28 -3 8 -1 18 5 21 6
4 8 13 4 21 -3 8 0 15 7 15 6 0 9 4 6 9 -3 5 5 9 19 9 15 0 22 -5 18 -11z"/>
<path d="M1880 1440 c-12 -7 -10 -9 7 -7 12 0 19 5 17 9 -6 10 -6 10 -24 -2z"/>
<path d="M7795 8892 c4 -12 3 -13 -10 -2 -8 7 -15 8 -15 3 0 -6 -11 -9 -25 -7
-14 1 -32 -4 -40 -13 -9 -9 -15 -10 -15 -3 0 7 -7 5 -16 -4 -8 -9 -20 -14 -25
-11 -5 4 -9 1 -9 -5 0 -7 -7 -10 -15 -6 -9 3 -15 0 -15 -9 0 -8 -6 -14 -12
-12 -7 1 -12 -4 -10 -11 1 -8 -2 -11 -8 -7 -5 3 -10 1 -10 -5 0 -6 -4 -9 -9
-6 -12 8 -33 -19 -23 -29 4 -5 1 -5 -5 -1 -7 4 -13 2 -13 -4 0 -6 -4 -8 -10
-5 -5 3 -12 -6 -16 -21 -4 -16 -9 -22 -14 -14 -5 8 -10 3 -14 -14 -3 -14 -11
-26 -17 -26 -6 0 -8 -4 -4 -9 3 -5 -5 -17 -17 -25 -15 -11 -18 -16 -8 -16 11
-1 10 -4 -4 -15 -11 -8 -16 -15 -12 -15 5 0 3 -7 -4 -15 -9 -11 -9 -15 -1 -15
7 0 9 -5 6 -10 -4 -6 -10 -8 -15 -5 -4 3 -7 -3 -5 -12 1 -10 -3 -24 -9 -32 -9
-12 -8 -13 4 -6 13 8 13 7 1 -8 -11 -14 -11 -20 0 -34 10 -11 10 -14 2 -9 -10
5 -13 -5 -13 -41 0 -26 4 -55 9 -62 6 -9 6 -22 0 -32 -6 -12 -5 -20 1 -24 6
-4 8 -11 5 -16 -4 -5 2 -9 12 -10 10 0 13 -3 6 -6 -10 -3 -10 -9 0 -26 7 -12
17 -25 22 -29 6 -5 4 -8 -5 -8 -13 0 -13 -2 0 -9 8 -6 18 -7 23 -4 5 3 5 -3
-1 -13 -9 -16 -4 -25 32 -59 23 -22 31 -31 17 -20 -23 18 -23 17 3 -13 17 -17
36 -32 43 -32 8 0 11 -4 8 -10 -3 -5 3 -10 15 -10 12 0 19 -4 15 -9 -5 -9 32
-27 47 -23 5 1 7 -1 7 -6 -3 -19 2 -23 17 -12 12 11 15 11 12 -1 -2 -9 6 -14
24 -14 14 -1 33 -7 42 -14 9 -7 25 -11 37 -8 13 4 19 1 16 -6 -6 -15 95 -17
105 -2 5 6 8 5 8 -3 0 -9 5 -10 19 -2 26 13 34 13 24 -2 -4 -8 2 -7 17 2 14 9
35 15 47 14 12 -1 20 2 18 7 -3 4 -1 10 5 14 5 3 10 0 10 -7 0 -10 2 -10 9 0
4 8 12 14 17 14 5 0 8 4 7 8 -1 4 6 6 17 3 12 -3 22 1 26 11 3 9 10 13 15 10
5 -3 9 0 9 7 0 7 3 10 6 6 3 -3 16 5 29 19 12 13 26 24 31 24 13 0 36 39 29
50 -4 6 1 7 11 3 12 -4 15 -3 10 5 -4 7 -3 12 2 12 5 0 17 12 27 26 12 18 13
24 4 19 -8 -3 -5 1 6 9 10 9 20 28 21 43 0 15 6 29 13 31 6 2 11 16 11 31 0
15 3 31 7 34 11 12 10 147 -2 147 -6 0 -7 3 0 8 6 4 11 13 13 21 2 11 0 12
-11 3 -11 -9 -13 -6 -9 18 3 20 0 30 -8 30 -10 0 -10 3 -1 14 9 11 9 15 -1 18
-7 3 -13 13 -13 24 0 10 -5 18 -12 17 -7 -2 -10 7 -7 23 3 14 1 23 -3 21 -8
-5 -34 17 -33 28 0 3 0 9 0 14 0 6 -13 18 -30 27 -21 13 -26 20 -17 26 8 5 7
8 -5 8 -10 0 -18 5 -18 10 0 6 -6 10 -13 10 -7 0 -19 9 -27 20 -8 11 -22 20
-32 20 -10 0 -18 5 -18 10 0 6 -7 10 -16 10 -8 0 -13 4 -9 9 3 6 -4 8 -15 6
-11 -2 -26 3 -34 11 -18 17 -30 18 -20 2 6 -9 3 -9 -9 0 -9 8 -21 11 -26 8 -5
-4 -13 -1 -16 5 -4 6 -18 8 -31 5 -13 -4 -24 -2 -24 2 0 11 -40 10 -57 -1 -7
-5 -13 -4 -13 1 0 5 -7 9 -15 9 -10 0 -14 -6 -10 -15z m56 -82 c0 -10 2 -11 6
-2 2 6 9 10 14 6 5 -3 9 0 9 6 0 7 5 7 14 -2 7 -8 31 -13 55 -12 22 0 41 -3
41 -8 0 -4 7 -8 16 -8 8 0 22 -7 31 -15 8 -8 19 -13 24 -10 5 4 9 -1 9 -9 0
-9 5 -16 11 -16 5 0 7 6 4 13 -4 6 1 3 10 -8 9 -11 21 -19 26 -17 5 1 9 -2 9
-7 0 -4 12 -20 26 -35 15 -14 24 -26 20 -26 -4 0 2 -10 14 -22 11 -12 20 -28
20 -35 0 -7 5 -13 10 -13 6 0 10 -11 10 -25 0 -14 5 -25 11 -25 5 0 8 -4 4 -9
-3 -5 -1 -12 4 -15 4 -3 7 -19 5 -36 -2 -16 0 -30 4 -30 13 0 13 -53 0 -62
-10 -6 -10 -10 0 -17 11 -7 12 -13 1 -32 -30 -58 -31 -61 -17 -53 10 6 10 4
-1 -9 -7 -9 -10 -17 -5 -17 5 0 3 -4 -5 -9 -8 -5 -16 -17 -17 -27 -2 -9 -9
-21 -16 -25 -7 -5 -9 -9 -5 -9 4 0 2 -6 -5 -14 -7 -8 -17 -11 -23 -8 -5 3 -7
2 -3 -3 11 -11 -10 -45 -28 -45 -8 0 -12 -4 -9 -10 3 -5 -1 -10 -9 -10 -9 0
-16 -8 -16 -17 0 -10 -4 -14 -8 -8 -4 6 -13 11 -21 13 -12 3 -12 1 0 -14 12
-16 12 -17 -4 -11 -11 4 -23 0 -34 -13 -13 -15 -19 -16 -25 -7 -5 8 -8 7 -8
-5 0 -10 -4 -18 -10 -18 -5 0 -7 8 -3 18 5 14 3 14 -13 -3 -21 -22 -99 -33
-88 -12 3 7 0 5 -8 -3 -15 -17 -43 -26 -33 -10 3 5 1 10 -4 10 -6 0 -11 -5
-11 -11 0 -8 -4 -8 -12 -1 -7 5 -25 8 -41 6 -18 -2 -25 1 -21 8 5 7 1 9 -9 5
-10 -3 -17 -2 -17 4 0 6 -4 7 -10 4 -5 -3 -10 -2 -10 4 0 5 -9 8 -20 6 -11 -2
-20 0 -20 4 0 4 -12 13 -26 19 -14 7 -22 17 -19 22 4 6 3 10 -2 9 -15 -4 -43
13 -37 22 3 5 -2 9 -11 9 -8 0 -18 7 -21 15 -4 8 -10 13 -14 10 -4 -3 -7 3 -6
13 0 10 -5 16 -13 14 -12 -3 -12 0 -2 12 9 11 9 16 0 22 -8 5 -9 3 -4 -6 6 -9
4 -11 -4 -5 -7 4 -11 16 -8 26 3 10 0 17 -7 16 -6 -1 -10 4 -8 11 1 6 -2 12
-8 12 -5 0 -10 16 -10 36 0 19 -4 33 -8 30 -4 -2 -7 8 -6 22 1 15 -3 35 -7 44
-6 11 -5 19 3 24 7 5 8 3 3 -6 -5 -9 -4 -11 4 -6 6 4 8 13 4 19 -11 17 -10 31
2 40 6 4 5 10 -5 17 -11 7 -12 10 -2 10 8 0 12 8 10 18 -2 9 3 25 12 35 8 9
15 25 15 35 0 9 6 16 14 14 12 -3 12 0 1 13 -11 13 -10 15 4 9 12 -4 15 -2 11
9 -4 8 1 17 10 21 9 3 13 10 10 16 -3 6 7 18 24 28 17 9 31 23 31 30 0 7 4 11
9 8 9 -6 74 38 66 45 -2 3 4 5 13 6 45 3 60 8 55 17 -3 5 5 7 20 4 14 -3 28 0
30 6 7 17 57 14 58 -4z"/>
<path d="M7614 8695 c-4 -8 -4 -24 -1 -35 3 -11 0 -20 -6 -20 -8 0 -7 -4 2 -9
11 -7 11 -9 0 -14 -9 -3 -9 -6 -2 -6 8 -1 9 -10 3 -30 -6 -21 -4 -35 5 -48 12
-16 11 -20 -8 -36 -12 -10 -17 -16 -11 -13 7 3 15 -1 18 -10 8 -22 8 -26 -3
-20 -11 7 -9 -13 2 -31 5 -8 4 -13 -2 -13 -6 0 -11 -5 -11 -11 0 -5 4 -8 8 -5
4 2 8 -4 8 -15 0 -13 -5 -18 -16 -14 -9 3 -8 -1 4 -10 14 -11 16 -15 5 -15
-12 0 -12 -2 1 -10 12 -8 12 -10 1 -10 -11 0 -9 -5 5 -22 10 -12 13 -18 5 -13
-11 6 -13 3 -9 -13 4 -13 1 -22 -5 -22 -7 0 -5 -5 3 -10 8 -5 10 -10 4 -10 -8
0 -9 -11 -4 -35 4 -19 5 -35 1 -35 -4 0 -8 -7 -8 -15 0 -11 4 -12 14 -4 10 9
13 7 13 -7 0 -16 2 -17 10 -4 9 13 10 13 10 0 0 -13 1 -13 10 0 5 8 10 11 10
5 0 -11 20 16 20 28 0 5 -6 5 -12 1 -10 -6 -10 -5 -1 7 9 11 9 19 2 26 -8 8
-7 13 2 18 8 6 10 4 4 -5 -5 -9 -4 -11 3 -6 9 5 8 13 -3 30 -8 12 -12 26 -8
30 11 11 10 30 -2 38 -6 5 -5 8 3 8 10 0 10 5 1 23 -12 21 -11 21 6 7 17 -14
17 -13 8 5 -9 15 -8 25 3 40 11 14 14 15 14 4 0 -20 38 -18 51 2 7 11 9 11 9
-4 0 -14 4 -16 18 -8 20 10 47 -1 73 -31 9 -9 20 -14 24 -10 4 4 6 0 3 -8 -2
-8 6 -24 19 -36 13 -12 23 -26 23 -33 0 -6 5 -11 12 -11 6 0 9 -3 5 -6 -3 -4
1 -13 9 -21 8 -8 12 -19 9 -24 -4 -5 1 -9 9 -9 9 0 15 -3 15 -7 -3 -20 2 -34
11 -28 6 3 10 0 10 -7 0 -9 14 -15 37 -16 20 -2 40 -5 46 -9 5 -3 4 4 -2 16
-9 16 -9 21 1 21 10 0 10 2 0 9 -8 4 -19 19 -26 32 -7 13 -18 23 -24 22 -6 -2
-9 4 -6 12 4 10 0 15 -12 15 -13 0 -15 3 -7 11 8 8 3 19 -18 41 -16 17 -26 35
-22 41 3 5 2 7 -4 4 -11 -7 -57 23 -60 39 -1 7 10 10 27 8 21 -3 30 1 30 11 0
8 3 14 8 14 21 -4 32 2 26 13 -5 8 -2 9 9 5 12 -5 17 -1 17 14 0 11 6 22 14
25 8 3 12 13 8 26 -3 13 -1 19 5 15 5 -3 10 0 10 8 0 8 -4 15 -9 15 -5 0 -6 6
-1 13 12 19 12 38 0 30 -6 -4 -8 0 -4 10 3 9 0 18 -9 21 -8 3 -14 10 -14 16 0
6 -7 18 -15 26 -8 9 -15 12 -15 9 0 -4 -8 1 -17 12 -10 10 -13 12 -8 4 8 -12
7 -12 -12 -3 -12 7 -33 13 -47 14 -15 1 -26 7 -26 13 0 6 -3 7 -8 0 -4 -5 -23
-11 -42 -13 -27 -1 -32 0 -20 9 13 9 12 10 -3 5 -10 -3 -21 -6 -23 -6 -3 0 -3
-4 0 -9 4 -5 -3 -7 -14 -4 -11 3 -17 9 -14 14 3 5 0 9 -5 9 -6 0 -11 -4 -11
-10 0 -15 -50 -12 -50 3 0 7 -5 5 -11 -5 -10 -19 -43 -13 -32 6 3 6 1 6 -8 -1
-16 -15 -33 -17 -24 -3 3 6 4 10 0 10 -3 0 -8 -7 -11 -15z m149 -62 c23 3 37
0 38 -7 0 -6 4 -2 9 9 5 11 9 15 9 8 1 -14 40 -14 60 1 11 8 13 8 8 -1 -4 -6
-3 -14 3 -18 5 -3 10 0 10 7 0 9 3 10 8 2 4 -6 15 -10 25 -8 9 1 15 -2 11 -7
-3 -5 0 -9 6 -9 6 0 16 -13 21 -30 6 -16 16 -30 22 -31 7 0 3 -4 -8 -9 -11 -5
-15 -9 -8 -9 9 -1 8 -8 -2 -27 -20 -39 -44 -51 -109 -53 -33 -1 -63 -4 -68 -7
-4 -3 -8 0 -8 7 0 7 -7 4 -16 -7 -8 -10 -13 -14 -10 -8 3 7 -1 14 -9 18 -8 3
-15 1 -15 -4 0 -5 -10 -6 -22 -4 -13 3 -28 6 -34 6 -6 1 -9 10 -6 20 2 10 9
15 16 11 6 -3 3 3 -7 14 -13 14 -15 23 -7 28 8 5 7 11 -2 23 -11 13 -11 14 0
8 9 -6 12 -3 10 10 -2 11 -7 22 -11 25 -12 9 3 39 19 39 8 0 14 6 14 13 0 9 2
9 9 -1 5 -8 21 -11 44 -9z"/>
<path d="M7701 7944 c0 -11 3 -14 6 -6 3 7 2 16 -1 19 -3 4 -6 -2 -5 -13z"/>
<path d="M8885 4960 c-3 -5 -1 -10 4 -10 6 0 11 5 11 10 0 6 -2 10 -4 10 -3 0
-8 -4 -11 -10z"/>
<path d="M2076 1363 c-6 -14 -5 -15 5 -6 7 7 10 15 7 18 -3 3 -9 -2 -12 -12z"/>
<path d="M4573 956 c4 -11 1 -13 -11 -9 -14 6 -15 4 -5 -8 10 -12 10 -18 0
-29 -9 -10 -9 -11 1 -6 15 9 15 5 2 -28 -6 -17 -6 -27 1 -32 8 -4 7 -9 -2 -15
-12 -7 -12 -9 0 -9 11 0 11 -3 0 -17 -12 -15 -12 -16 1 -8 13 8 13 7 1 -9 -13
-15 -16 -16 -25 -3 -6 8 -15 16 -21 18 -5 2 -9 7 -8 10 3 8 -30 5 -44 -4 -6
-4 -14 -1 -16 5 -4 10 -6 10 -6 1 -1 -7 -8 -10 -16 -7 -8 4 -17 -1 -21 -10 -3
-9 -10 -13 -16 -10 -5 3 -12 -3 -15 -15 -3 -12 -9 -21 -13 -21 -10 0 -23 -40
-20 -64 1 -12 -3 -16 -10 -11 -9 5 -8 1 1 -16 12 -23 11 -23 -7 -9 -12 9 -9 3
6 -14 16 -19 20 -27 9 -24 -12 5 -15 1 -11 -18 2 -13 8 -24 13 -24 5 0 9 -5 9
-11 0 -5 -5 -7 -10 -4 -6 4 -5 -4 1 -19 7 -14 17 -22 23 -19 6 4 5 -1 -3 -11
-12 -15 -12 -17 0 -14 8 2 13 -3 11 -10 -1 -8 2 -11 8 -7 5 3 10 1 10 -5 0 -7
25 -10 75 -9 41 1 73 5 70 8 -2 4 0 13 6 21 7 13 9 13 9 0 0 -13 1 -13 10 0 8
12 10 11 10 -7 0 -19 5 -23 33 -23 24 0 28 3 17 10 -13 9 -13 10 0 10 13 0 13
1 0 10 -13 9 -13 10 0 10 13 0 13 1 0 10 -13 9 -13 10 0 10 13 0 13 1 0 10
-13 9 -13 10 0 10 13 0 13 1 0 10 -13 9 -13 10 0 10 13 0 13 1 0 10 -13 9 -13
10 0 10 13 0 13 1 0 10 -9 6 -11 13 -5 18 6 4 10 14 10 22 0 8 -4 18 -10 23
-6 4 -6 10 2 15 8 5 9 13 3 22 -5 8 -5 21 1 32 7 13 6 18 -3 18 -9 0 -9 3 0
12 8 8 8 17 1 31 -8 14 -8 18 0 13 6 -4 11 -2 11 3 0 6 -5 11 -11 11 -8 0 -8
4 -1 13 7 8 7 18 2 27 -5 9 -5 19 2 27 8 10 7 13 -3 13 -11 0 -11 2 1 10 12 8
12 10 1 10 -10 0 -11 3 -3 13 14 17 0 40 -28 44 -16 2 -21 -1 -17 -11z m-103
-195 c0 12 2 12 9 0 5 -7 14 -10 20 -7 6 4 11 3 11 -3 0 -5 9 -13 20 -16 11
-4 20 -15 20 -26 0 -14 4 -18 13 -13 8 5 8 2 -2 -9 -11 -14 -11 -17 0 -17 10
0 10 -3 1 -12 -8 -8 -8 -15 -1 -24 7 -8 7 -14 -1 -19 -8 -5 -8 -11 1 -21 9
-11 8 -14 -2 -14 -10 0 -11 -2 -2 -8 8 -5 4 -14 -12 -28 -13 -12 -27 -19 -30
-16 -3 3 -5 -1 -5 -9 0 -10 -12 -16 -36 -17 -22 -2 -33 1 -29 8 3 5 0 7 -8 4
-14 -5 -37 33 -37 62 0 9 -5 12 -12 8 -9 -5 -9 -2 1 9 11 14 11 17 0 18 -8 0
-5 4 6 9 11 5 15 9 8 9 -13 1 -13 71 0 71 4 0 6 3 6 8 -3 17 1 35 7 29 9 -9
33 16 26 28 -3 6 2 4 11 -4 14 -11 17 -11 17 0z"/>
<path d="M5087 937 c4 -6 -1 -8 -11 -4 -13 5 -16 2 -14 -11 1 -9 -1 -23 -6
-31 -6 -10 -5 -12 2 -7 7 4 12 2 12 -3 0 -16 39 -13 56 3 11 11 11 16 1 19 -9
4 -9 6 0 6 7 1 10 8 7 16 -4 8 -10 12 -15 9 -5 -3 -9 -1 -9 4 0 5 -7 9 -15 9
-8 0 -11 -5 -8 -10z"/>
<path d="M5857 935 c-11 -7 -25 -11 -33 -8 -8 3 -14 -1 -14 -8 0 -7 -3 -10 -6
-6 -3 3 -14 -2 -23 -11 -12 -12 -15 -21 -8 -30 7 -9 5 -11 -9 -7 -11 4 -9 0 6
-9 18 -10 26 -11 30 -3 5 11 14 15 50 22 8 1 14 8 12 15 -1 6 2 9 8 5 6 -3 7
-12 3 -18 -5 -9 -3 -9 8 0 11 9 18 8 33 -3 10 -7 22 -11 26 -9 4 3 7 -3 7 -13
0 -36 3 -43 16 -36 10 6 10 4 0 -7 -7 -7 -13 -28 -13 -47 0 -22 -4 -31 -12
-26 -8 5 -9 0 -6 -14 4 -13 2 -20 -4 -16 -5 3 -12 -3 -15 -15 -3 -12 -10 -21
-15 -21 -5 0 -6 -5 -2 -12 5 -7 2 -9 -9 -5 -11 4 -15 1 -12 -13 2 -11 1 -19
-3 -19 -17 3 -32 -2 -29 -9 1 -4 -10 -20 -25 -34 -15 -14 -25 -28 -22 -31 3
-3 -4 -8 -15 -12 -12 -3 -19 -11 -16 -16 4 -5 2 -9 -3 -9 -5 0 -9 -10 -8 -23
1 -22 4 -22 137 -25 119 -2 138 0 150 15 9 11 10 14 2 9 -8 -4 -13 -2 -13 4 0
6 -5 8 -12 4 -8 -5 -7 0 2 11 8 10 10 16 3 12 -6 -4 -14 -1 -16 5 -3 7 -6 4
-6 -6 -1 -15 -4 -17 -13 -8 -9 9 -14 7 -23 -5 -10 -13 -14 -13 -20 -3 -6 9 -4
11 6 5 8 -5 11 -4 6 1 -12 12 -30 12 -39 -1 -5 -6 -8 -6 -8 3 0 6 -5 12 -11
12 -5 0 -8 -3 -6 -7 3 -5 -10 -8 -29 -9 -19 0 -30 2 -24 6 6 4 12 16 13 27 0
13 6 19 14 16 7 -3 13 2 13 11 0 9 7 19 15 22 8 4 15 13 15 22 0 8 3 12 7 9 7
-8 39 34 35 46 -1 4 5 7 13 7 8 0 15 6 15 14 0 8 7 22 16 30 9 10 11 16 4 16
-7 0 -6 5 3 14 9 9 13 26 10 43 -4 22 -2 25 6 13 6 -8 11 -10 11 -4 0 6 -3 14
-7 18 -9 8 -10 14 -12 51 0 14 -4 24 -8 23 -5 -2 -10 2 -12 7 -8 19 -36 34
-64 35 -20 0 -26 4 -21 13 6 10 4 10 -7 0 -16 -15 -33 -17 -24 -3 8 13 4 12
-18 -5z"/>
<path d="M6240 938 c-62 -25 -90 -42 -90 -55 0 -7 -6 -13 -13 -13 -9 0 -13
-11 -12 -30 1 -16 -2 -27 -7 -24 -9 6 -11 -7 -8 -50 1 -19 -2 -26 -10 -21 -9
6 -9 2 -1 -12 7 -14 7 -23 -1 -31 -9 -9 -9 -12 0 -12 7 0 12 -5 12 -11 0 -5
-5 -7 -12 -3 -7 5 -8 3 -2 -7 8 -12 14 -61 15 -112 0 -10 5 -15 11 -11 7 5 9
2 6 -7 -3 -8 3 -25 13 -38 11 -13 19 -19 19 -15 0 5 5 1 11 -9 9 -16 22 -18
94 -16 46 2 82 7 79 11 -3 4 0 8 5 8 6 0 11 7 11 16 0 8 5 12 10 9 6 -3 10 3
10 14 0 12 4 21 10 21 5 0 7 7 4 15 -4 8 -1 15 6 15 9 0 9 4 -1 17 -10 11 -10
14 -1 9 11 -7 18 24 13 62 -1 8 4 21 11 30 11 13 11 15 -3 10 -12 -5 -15 -1
-11 18 2 13 8 22 12 19 5 -3 6 4 3 16 -4 14 -8 17 -13 9 -4 -7 -6 7 -4 29 1
23 -2 41 -7 41 -6 0 -9 6 -8 13 5 26 -24 63 -67 83 -24 12 -42 18 -39 14 3 -4
-2 -10 -10 -13 -9 -4 -12 -1 -8 9 6 16 6 16 -27 2z m50 -60 c0 -6 -8 -4 -17 3
-17 13 -17 12 -4 -4 14 -18 16 -18 28 -1 12 16 13 16 13 1 0 -9 4 -17 10 -17
5 0 6 -7 3 -17 -4 -11 -3 -14 5 -9 10 6 18 -16 10 -27 -2 -2 4 -12 12 -22 8
-11 10 -16 4 -12 -8 4 -11 -2 -10 -17 0 -13 4 -22 9 -19 10 6 9 -5 -3 -27 -7
-13 -7 -21 2 -26 7 -5 8 -3 3 6 -6 9 -4 11 5 5 10 -6 9 -11 -4 -21 -11 -8 -13
-14 -7 -19 8 -4 8 -12 1 -25 -7 -13 -7 -21 1 -26 9 -5 7 -11 -5 -20 -10 -7
-17 -15 -17 -18 3 -24 -3 -34 -28 -49 -24 -14 -55 -17 -81 -7 -3 2 -8 2 -12 1
-4 0 -10 8 -13 19 -4 11 -11 20 -17 20 -6 0 -8 9 -5 20 3 11 0 20 -6 20 -7 0
-5 5 3 10 8 5 10 10 4 10 -7 0 -11 14 -9 35 1 20 -2 38 -7 41 -5 3 -5 11 0 17
5 7 9 29 8 50 -1 20 1 37 5 37 3 0 7 12 7 26 0 15 7 31 16 36 9 5 16 17 17 26
0 10 3 12 6 5 4 -10 9 -10 25 1 21 15 48 11 48 -6z"/>
<path d="M6626 943 c-8 -8 -13 -10 -46 -12 -11 0 -29 -10 -40 -21 -12 -12 -26
-18 -33 -14 -7 4 -9 4 -5 -1 4 -4 2 -15 -5 -23 -10 -13 -9 -14 2 -7 10 6 12 4
7 -4 -5 -7 -14 -10 -22 -7 -12 4 -12 2 -4 -14 6 -11 7 -20 1 -20 -5 0 -12 -7
-15 -16 -3 -8 -2 -12 4 -9 6 3 10 1 10 -4 0 -6 -5 -11 -11 -11 -8 0 -8 -5 1
-15 10 -12 10 -15 0 -15 -7 0 -10 -7 -6 -16 3 -8 1 -25 -5 -36 -7 -13 -7 -18
-1 -14 7 4 9 -4 8 -21 -2 -16 1 -34 8 -42 9 -12 8 -13 -8 -8 -16 6 -17 5 -6
-8 7 -8 9 -15 5 -15 -4 0 -2 -7 5 -15 7 -8 9 -15 4 -15 -5 0 -2 -5 6 -10 9 -6
10 -10 3 -10 -7 0 -1 -12 12 -26 14 -15 22 -31 18 -37 -3 -6 -1 -7 5 -3 7 4
12 3 12 -2 0 -5 35 -10 79 -11 76 -2 80 -1 110 29 17 18 29 36 25 41 -3 5 0 9
6 9 6 0 8 5 4 11 -3 6 -1 14 5 18 6 4 12 33 13 64 1 32 6 53 12 50 5 -4 6 -1
1 7 -4 7 -10 38 -11 68 -2 30 -9 61 -15 68 -9 11 -9 14 0 14 12 0 7 8 -31 51
-10 10 -18 25 -18 32 0 8 -4 7 -10 -3 -6 -10 -10 -11 -10 -2 0 7 -13 12 -32
12 -25 0 -29 3 -18 10 8 5 10 10 4 10 -6 0 -14 -3 -18 -7z m-42 -65 c-5 -9 -2
-9 9 1 14 11 17 11 18 0 0 -10 2 -11 6 -1 6 16 28 15 43 -3 7 -8 17 -12 23 -8
5 3 7 1 3 -5 -3 -6 -1 -14 5 -17 5 -4 8 -13 5 -21 -3 -8 -2 -14 2 -14 8 0 14
-36 14 -87 0 -22 4 -30 12 -26 7 4 6 1 -1 -9 -7 -8 -11 -29 -9 -46 2 -18 0
-32 -5 -32 -4 0 -6 -9 -4 -20 2 -11 -1 -20 -7 -20 -5 0 -8 -7 -4 -15 3 -10 -1
-15 -12 -15 -13 0 -14 -2 -4 -9 11 -7 10 -10 -3 -15 -9 -3 -22 -3 -27 1 -7 3
-8 1 -4 -6 6 -9 -3 -11 -33 -10 -23 2 -41 7 -41 12 0 10 -26 38 -31 32 -2 -2
-4 15 -4 38 0 23 -4 48 -9 55 -5 7 -4 12 3 12 6 0 11 5 11 11 0 5 -4 8 -9 4
-15 -8 -24 14 -12 29 6 7 8 16 4 19 -3 4 0 7 7 7 9 0 7 5 -6 16 -10 8 -14 13
-7 10 18 -9 22 18 4 32 -14 11 -14 11 3 5 14 -4 17 -3 12 6 -4 6 -2 19 6 28 9
12 9 15 1 9 -9 -5 -11 -2 -7 8 3 9 9 14 14 11 4 -2 12 7 18 20 7 14 14 25 17
25 4 0 3 -6 -1 -12z"/>
<path d="M3513 925 c-8 -9 -9 -15 0 -24 8 -8 8 -11 -1 -11 -7 0 -12 -7 -12
-16 0 -9 5 -12 12 -8 7 5 8 3 3 -6 -5 -7 -7 -38 -6 -68 1 -30 -2 -51 -7 -48
-5 3 -7 -6 -4 -19 2 -14 9 -22 15 -18 6 4 7 1 2 -7 -5 -7 -7 -38 -6 -68 1 -35
-1 -52 -8 -47 -7 3 -8 0 -5 -9 3 -9 9 -14 13 -11 4 2 8 -2 8 -9 0 -8 -7 -12
-15 -8 -11 4 -11 -1 3 -21 12 -19 13 -27 5 -27 -10 0 -10 -3 -1 -14 9 -11 9
-15 -1 -19 -7 -3 47 -6 119 -6 l133 -1 -10 24 c-5 13 -6 27 -3 30 7 7 -52 -10
-69 -20 -10 -6 -11 -5 -1 7 10 13 10 16 -2 16 -8 0 -15 -5 -15 -11 0 -6 -5 -4
-10 4 -5 8 -10 10 -10 4 0 -7 -11 -9 -25 -6 -17 3 -25 0 -25 -9 0 -11 -2 -11
-9 1 -6 8 -7 18 -4 24 4 5 -2 7 -13 3 -18 -7 -18 -7 0 8 14 11 16 15 5 15 -12
0 -12 2 1 10 12 8 12 10 -5 10 -17 0 -17 2 -5 10 13 8 13 13 2 31 -10 15 -10
19 -1 13 9 -5 11 -1 7 14 -4 12 0 26 8 33 8 6 14 9 14 5 0 -3 11 -1 25 4 16 6
26 6 31 -1 4 -8 9 -7 15 2 7 11 9 11 9 -1 0 -13 1 -13 10 0 5 8 10 10 10 3 0
-6 9 -9 20 -6 11 3 17 9 14 14 -3 5 -1 9 5 9 6 0 8 7 4 16 -5 13 -7 13 -14 2
-6 -10 -9 -8 -9 7 0 17 -2 17 -10 5 -5 -8 -10 -10 -10 -5 0 6 -9 11 -20 11
-11 0 -20 -3 -20 -6 0 -3 -18 -4 -40 -2 -35 4 -40 7 -41 31 0 14 -1 47 -2 73
-1 25 1 44 6 41 5 -3 15 3 23 13 12 17 13 17 8 2 -7 -21 -1 -22 28 -7 15 8 19
8 14 0 -9 -14 7 -14 21 0 8 8 13 8 17 0 4 -6 12 -11 17 -11 6 0 8 4 5 8 -3 5
1 9 9 9 8 0 15 -4 15 -8 0 -5 6 -6 14 -3 22 8 7 54 -18 53 -11 0 -51 1 -89 2
-37 1 -70 -1 -73 -4 -4 -3 -14 -2 -23 2 -10 6 -20 4 -28 -4z"/>
<path d="M6960 918 c-10 -9 -21 -14 -24 -11 -3 4 -6 1 -6 -5 0 -7 -4 -12 -10
-12 -15 0 -50 -33 -50 -48 0 -7 -4 -11 -8 -8 -5 3 -9 -1 -9 -8 0 -15 14 -15
36 -2 10 7 12 5 7 -5 -5 -10 -4 -10 6 1 16 19 73 56 64 42 -3 -6 -3 -12 1 -15
5 -2 2 -2 -5 0 -10 2 -10 -1 1 -17 9 -14 12 -34 7 -70 -3 -27 -3 -55 1 -61 4
-7 4 -22 -1 -33 -4 -11 -4 -33 1 -48 4 -16 4 -28 0 -28 -7 0 -7 -34 1 -72 2
-8 -6 -13 -19 -13 -11 0 -24 -3 -28 -7 -11 -11 -36 3 -28 16 3 6 -3 3 -14 -7
-11 -9 -22 -14 -26 -11 -3 3 -3 -4 0 -15 5 -21 10 -21 136 -19 101 2 131 6
135 17 3 8 0 11 -7 7 -6 -4 -11 -3 -11 3 0 5 5 12 10 14 6 3 5 4 -2 3 -7 -2
-23 1 -35 5 -16 6 -25 4 -31 -7 -7 -12 -10 -10 -20 11 -9 19 -9 25 1 25 8 0 7
4 -3 10 -13 9 -13 11 0 20 12 8 12 10 1 10 -10 0 -11 3 -2 14 9 11 9 15 -1 19
-11 4 -10 6 0 6 7 1 11 5 7 10 -8 14 -10 195 -2 208 4 6 1 14 -5 16 -10 4 -9
8 2 16 12 8 12 11 1 11 -11 0 -11 3 -1 15 10 12 10 15 0 15 -7 0 -10 6 -7 13
7 18 -41 15 -63 -5z"/>
<path d="M4164 902 c5 -8 0 -12 -13 -12 -12 0 -21 -5 -21 -11 0 -5 4 -7 10 -4
6 3 7 -1 4 -9 -3 -9 -11 -13 -18 -9 -6 4 -3 -5 7 -20 10 -15 14 -27 10 -26
-26 4 -43 -2 -37 -13 5 -9 2 -8 -10 1 -15 13 -17 12 -12 -12 2 -14 -1 -28 -7
-31 -7 -3 -3 -5 8 -5 53 3 54 2 48 -57 -2 -32 -1 -54 5 -50 5 3 9 -1 9 -8 0
-9 -7 -12 -16 -8 -14 5 -14 4 -2 -11 11 -14 11 -23 3 -42 -6 -13 -7 -27 -3
-30 5 -2 12 -20 15 -39 8 -40 19 -46 92 -46 38 0 53 4 52 12 -4 19 -30 36 -46
30 -8 -2 -25 8 -38 23 -26 30 -30 40 -14 30 6 -3 10 1 10 10 0 9 -4 14 -8 11
-9 -5 -7 52 2 61 3 4 1 13 -6 20 -9 11 -9 17 3 24 12 7 12 9 0 9 -11 0 -10 4
5 16 10 8 14 13 8 10 -7 -3 -15 1 -18 10 -5 12 -2 15 10 10 14 -5 15 -4 5 8
-11 13 -9 15 8 11 11 -2 23 1 27 6 4 7 10 7 18 0 6 -5 16 -7 21 -3 14 10 17
32 4 32 -5 0 -7 5 -4 10 3 6 2 10 -4 10 -5 0 -12 -6 -14 -12 -4 -10 -6 -10 -6
0 -1 15 -31 16 -31 1 0 -5 -5 -7 -10 -4 -6 4 -8 11 -4 16 3 5 2 9 -3 8 -22 -4
-25 2 -7 16 10 9 13 14 5 13 -7 -2 -16 3 -19 11 -3 9 0 11 8 6 9 -6 9 -3 1 13
-6 12 -16 24 -23 28 -7 4 -8 3 -4 -4z"/>
<path d="M3896 805 c-3 -9 -9 -15 -13 -12 -5 2 -19 -8 -33 -21 -14 -14 -19
-22 -12 -18 11 7 11 4 1 -12 -11 -17 -10 -24 2 -38 9 -11 9 -15 2 -10 -7 4
-13 2 -13 -4 0 -14 46 -60 60 -60 5 0 10 -4 10 -10 0 -5 9 -10 19 -10 11 0 23
-5 26 -10 4 -6 11 -8 16 -5 5 4 9 -1 9 -10 0 -9 5 -13 10 -10 6 4 10 -5 10
-19 0 -14 -5 -26 -12 -26 -6 0 -8 -3 -5 -7 4 -3 -1 -12 -12 -19 -14 -10 -27
-11 -57 -3 -21 6 -43 14 -49 17 -22 14 -32 9 -27 -11 4 -15 2 -18 -9 -12 -12
8 -12 6 0 -8 7 -9 17 -14 22 -11 5 3 9 0 9 -5 0 -7 27 -11 70 -11 56 0 74 4
89 19 11 11 22 16 26 13 4 -4 6 -2 5 3 -1 6 -1 12 0 15 10 23 5 67 -8 79 -16
13 -16 13 1 8 9 -4 17 -2 17 3 0 6 -6 10 -13 10 -8 0 -22 9 -32 20 -10 11 -26
20 -37 20 -10 0 -18 6 -18 13 0 8 -4 7 -10 -3 -8 -13 -10 -12 -10 3 0 10 -4
15 -10 12 -5 -3 -10 -1 -10 4 0 6 -6 11 -13 11 -7 0 -13 9 -13 20 0 11 4 20 9
20 4 0 6 3 4 8 -3 4 1 13 9 20 9 8 14 9 14 2 0 -6 5 -8 10 -5 6 4 8 11 5 16
-4 5 3 5 18 0 14 -6 28 -7 33 -3 4 4 4 1 0 -5 -4 -8 -1 -13 8 -13 26 0 31 4
31 24 0 22 -70 52 -81 34 -4 -6 -9 -5 -15 3 -7 11 -9 11 -9 -1 0 -12 -2 -12
-9 -2 -7 11 -9 10 -15 -3z"/>
<path d="M5244 806 c-18 -19 -22 -40 -12 -58 5 -10 5 -18 0 -18 -4 0 -8 -9 -8
-19 0 -11 4 -17 8 -15 4 3 8 1 8 -5 0 -5 -6 -12 -12 -14 -10 -4 -10 -6 0 -6 6
-1 12 -6 12 -12 0 -5 -6 -7 -12 -3 -10 6 -10 4 0 -8 10 -13 10 -17 0 -20 -10
-4 -10 -8 1 -21 10 -13 10 -17 1 -17 -10 0 -10 -3 0 -15 10 -12 10 -15 -1 -15
-8 0 -5 -6 7 -14 19 -14 19 -15 0 -22 -19 -7 -19 -8 0 -15 18 -7 18 -8 0 -8
-15 -1 -16 -4 -7 -15 9 -11 9 -15 -1 -20 -7 -3 3 -4 22 -3 29 2 35 6 34 25 0
12 2 22 6 22 3 0 6 9 6 19 0 11 -4 17 -8 15 -4 -3 -8 2 -8 11 0 10 5 13 13 9
8 -5 8 -2 -2 9 -7 9 -9 17 -4 17 14 0 9 35 -6 54 -12 14 -11 16 4 10 15 -6 16
-4 7 11 -8 15 -6 22 6 33 13 10 13 12 2 7 -8 -4 -4 3 10 16 14 12 24 25 23 30
-2 5 4 6 12 3 9 -4 23 0 32 7 14 12 16 12 8 0 -6 -10 -4 -13 6 -9 8 2 22 -4
32 -14 9 -10 14 -18 11 -18 -4 0 -1 -7 6 -15 10 -12 10 -15 -1 -15 -8 0 -6 -6
7 -16 10 -8 14 -13 8 -10 -7 3 -15 -1 -18 -10 -3 -8 -2 -13 3 -10 5 3 12 -1
15 -10 3 -8 2 -13 -3 -10 -5 3 -11 -1 -15 -9 -3 -8 -1 -17 5 -21 7 -4 6 -10
-1 -19 -8 -9 -8 -15 0 -20 5 -3 10 -11 10 -16 0 -6 -5 -7 -12 -3 -7 5 -8 3 -2
-7 12 -19 12 -33 -1 -41 -6 -5 -5 -8 3 -8 7 0 10 -5 7 -11 -5 -7 4 -9 26 -7
25 2 33 8 34 26 1 12 -3 22 -8 22 -5 0 -4 7 3 15 7 8 8 15 3 15 -5 0 -9 9 -9
19 0 11 4 17 8 15 9 -6 11 10 2 19 -3 3 -7 41 -8 83 -1 53 -5 79 -14 82 -9 3
-10 7 -2 17 9 11 7 12 -9 8 -14 -4 -21 -1 -21 10 0 10 -13 16 -40 19 -22 2
-40 0 -40 -5 0 -4 -4 -6 -9 -3 -5 4 -11 1 -13 -4 -2 -6 -13 -12 -25 -13 -12 0
-19 -5 -17 -9 3 -4 -2 -8 -11 -8 -9 0 -14 3 -12 8 3 4 -3 14 -12 23 -12 13
-19 14 -27 5z"/>
<path d="M5069 807 c-7 -18 -1 -197 6 -197 7 0 7 -3 0 -8 -5 -4 -10 -37 -10
-75 l0 -67 31 0 c30 0 30 0 30 53 -1 28 -5 58 -10 66 -6 9 -5 12 1 8 6 -4 9
34 9 106 l-1 112 -27 2 c-16 1 -28 1 -29 0z"/>
<path d="M4725 517 c-11 -11 -15 -17 -8 -13 6 3 14 2 18 -4 3 -5 2 -10 -4 -10
-6 0 -8 -7 -5 -15 7 -18 60 -20 70 -3 11 17 12 48 2 42 -4 -3 -8 1 -8 9 0 21
-42 17 -65 -6z"/>
</g>
</svg>
